<svg width="47" height="16" viewBox="0 0 47 16" fill="none" xmlns="http://www.w3.org/2000/svg">
<path d="M0.505682 15H9.68182V13.4375H2.92045V13.3239L6.1875 9.82955C8.6875 7.15199 9.42614 5.90199 9.42614 4.28977C9.42614 2.04545 7.60795 0.255681 5.05114 0.255681C2.50142 0.255681 0.5625 1.98864 0.5625 4.54545H2.23864C2.23864 2.89062 3.31108 1.78977 4.99432 1.78977C6.57102 1.78977 7.77841 2.75568 7.77841 4.28977C7.77841 5.6321 6.99006 6.62642 5.30682 8.46591L0.505682 13.7216V15ZM17.3594 15.1989C20.5696 15.1989 22.4162 12.4787 22.4162 7.72727C22.4162 3.01136 20.5412 0.255681 17.3594 0.255681C14.1776 0.255681 12.3026 3.01136 12.3026 7.72727C12.3026 12.4787 14.1491 15.1989 17.3594 15.1989ZM17.3594 13.6364C15.2429 13.6364 14.0071 11.5128 14.0071 7.72727C14.0071 3.94886 15.2571 1.78977 17.3594 1.78977C19.4616 1.78977 20.7116 3.94886 20.7116 7.72727C20.7116 11.5128 19.4759 13.6364 17.3594 13.6364ZM25.1151 15H34.2912V13.4375H27.5298V13.3239L30.7969 9.82955C33.2969 7.15199 34.0355 5.90199 34.0355 4.28977C34.0355 2.04545 32.2173 0.255681 29.6605 0.255681C27.1108 0.255681 25.1719 1.98864 25.1719 4.54545H26.848C26.848 2.89062 27.9205 1.78977 29.6037 1.78977C31.1804 1.78977 32.3878 2.75568 32.3878 4.28977C32.3878 5.6321 31.5994 6.62642 29.9162 8.46591L25.1151 13.7216V15ZM37.2244 15H46.4006V13.4375H39.6392V13.3239L42.9062 9.82955C45.4062 7.15199 46.1449 5.90199 46.1449 4.28977C46.1449 2.04545 44.3267 0.255681 41.7699 0.255681C39.2202 0.255681 37.2812 1.98864 37.2812 4.54545H38.9574C38.9574 2.89062 40.0298 1.78977 41.7131 1.78977C43.2898 1.78977 44.4972 2.75568 44.4972 4.28977C44.4972 5.6321 43.7088 6.62642 42.0256 8.46591L37.2244 13.7216V15Z" fill="white"/>
</svg>
