<svg width="365" height="180" viewBox="0 0 365 180" fill="none" xmlns="http://www.w3.org/2000/svg">
<path d="M102.449 61H110.707V59.5938H104.622V59.4915L107.562 56.3466C109.812 53.9368 110.477 52.8118 110.477 51.3608C110.477 49.3409 108.841 47.7301 106.54 47.7301C104.245 47.7301 102.5 49.2898 102.5 51.5909H104.009C104.009 50.1016 104.974 49.1108 106.489 49.1108C107.908 49.1108 108.994 49.9801 108.994 51.3608C108.994 52.5689 108.285 53.4638 106.77 55.1193L102.449 59.8494V61ZM117.617 61.179C120.506 61.179 122.168 58.7308 122.168 54.4545C122.168 50.2102 120.481 47.7301 117.617 47.7301C114.754 47.7301 113.066 50.2102 113.066 54.4545C113.066 58.7308 114.728 61.179 117.617 61.179ZM117.617 59.7727C115.712 59.7727 114.6 57.8615 114.6 54.4545C114.6 51.054 115.725 49.1108 117.617 49.1108C119.509 49.1108 120.634 51.054 120.634 54.4545C120.634 57.8615 119.522 59.7727 117.617 59.7727ZM128.867 61.179C131.756 61.179 133.418 58.7308 133.418 54.4545C133.418 50.2102 131.731 47.7301 128.867 47.7301C126.004 47.7301 124.316 50.2102 124.316 54.4545C124.316 58.7308 125.978 61.179 128.867 61.179ZM128.867 59.7727C126.962 59.7727 125.85 57.8615 125.85 54.4545C125.85 51.054 126.975 49.1108 128.867 49.1108C130.759 49.1108 131.884 51.054 131.884 54.4545C131.884 57.8615 130.772 59.7727 128.867 59.7727ZM140.935 64.6818H142.444V59.4915H142.572C142.904 60.0284 143.543 61.2045 145.435 61.2045C147.89 61.2045 149.603 59.2358 149.603 56.1165C149.603 53.0227 147.89 51.054 145.41 51.054C143.492 51.054 142.904 52.2301 142.572 52.7415H142.393V51.1818H140.935V64.6818ZM142.418 56.0909C142.418 53.892 143.39 52.4091 145.231 52.4091C147.148 52.4091 148.094 54.0199 148.094 56.0909C148.094 58.1875 147.123 59.8494 145.231 59.8494C143.415 59.8494 142.418 58.3153 142.418 56.0909ZM153.413 55.0938C153.413 53.3807 154.506 52.4091 155.995 52.4091C157.414 52.4091 158.271 53.304 158.271 54.8636V61H159.779V54.7614C159.779 52.2365 158.437 51.054 156.43 51.054C154.883 51.054 154.001 51.6996 153.54 52.7159H153.413V47.9091H151.904V61H153.413V55.0938ZM166.528 61.2045C169.187 61.2045 170.976 59.1847 170.976 56.142C170.976 53.0739 169.187 51.054 166.528 51.054C163.868 51.054 162.079 53.0739 162.079 56.142C162.079 59.1847 163.868 61.2045 166.528 61.2045ZM166.528 59.8494C164.508 59.8494 163.587 58.1108 163.587 56.142C163.587 54.1733 164.508 52.4091 166.528 52.4091C168.547 52.4091 169.468 54.1733 169.468 56.142C169.468 58.1108 168.547 59.8494 166.528 59.8494ZM177.549 51.1818H175.452V48.8295H173.944V51.1818H172.461V52.4602H173.944V58.5966C173.944 60.3097 175.325 61.1278 176.603 61.1278C177.165 61.1278 177.523 61.0256 177.728 60.9489L177.421 59.5938C177.293 59.6193 177.089 59.6705 176.756 59.6705C176.092 59.6705 175.452 59.4659 175.452 58.1875V52.4602H177.549V51.1818ZM183.701 61.2045C186.36 61.2045 188.15 59.1847 188.15 56.142C188.15 53.0739 186.36 51.054 183.701 51.054C181.042 51.054 179.252 53.0739 179.252 56.142C179.252 59.1847 181.042 61.2045 183.701 61.2045ZM183.701 59.8494C181.681 59.8494 180.761 58.1108 180.761 56.142C180.761 54.1733 181.681 52.4091 183.701 52.4091C185.721 52.4091 186.642 54.1733 186.642 56.142C186.642 58.1108 185.721 59.8494 183.701 59.8494ZM197.407 53.3807C196.934 51.9872 195.873 51.054 193.93 51.054C191.859 51.054 190.325 52.2301 190.325 53.892C190.325 55.2472 191.131 56.1548 192.933 56.5767L194.569 56.9602C195.56 57.1903 196.027 57.6634 196.027 58.3409C196.027 59.1847 195.132 59.875 193.726 59.875C192.492 59.875 191.719 59.3445 191.45 58.2898L190.018 58.6477C190.37 60.3161 191.744 61.2045 193.751 61.2045C196.033 61.2045 197.586 59.9581 197.586 58.2642C197.586 56.8963 196.73 56.0334 194.979 55.6051L193.521 55.2472C192.358 54.9595 191.834 54.5696 191.834 53.8153C191.834 52.9716 192.729 52.358 193.93 52.358C195.247 52.358 195.79 53.0866 196.052 53.7642L197.407 53.3807ZM204.92 61H206.428V51.1818H204.92V61ZM205.687 49.5455C206.275 49.5455 206.761 49.0852 206.761 48.5227C206.761 47.9602 206.275 47.5 205.687 47.5C205.099 47.5 204.613 47.9602 204.613 48.5227C204.613 49.0852 205.099 49.5455 205.687 49.5455ZM210.7 55.0938C210.7 53.3807 211.761 52.4091 213.205 52.4091C214.605 52.4091 215.455 53.3232 215.455 54.8636V61H216.964V54.7614C216.964 52.2557 215.628 51.054 213.64 51.054C212.157 51.054 211.237 51.7188 210.776 52.7159H210.649V51.1818H209.191V61H210.7V55.0938ZM228.772 61.2045C230.945 61.2045 232.377 59.875 232.632 58.1364H231.124C230.843 59.2102 229.948 59.8494 228.772 59.8494C226.982 59.8494 225.831 58.3665 225.831 56.0909C225.831 53.8665 227.007 52.4091 228.772 52.4091C230.101 52.4091 230.894 53.2273 231.124 54.1222H232.632C232.377 52.2812 230.817 51.054 228.746 51.054C226.087 51.054 224.323 53.1506 224.323 56.142C224.323 59.0824 226.01 61.2045 228.772 61.2045ZM238.826 61.2045C241.485 61.2045 243.275 59.1847 243.275 56.142C243.275 53.0739 241.485 51.054 238.826 51.054C236.167 51.054 234.377 53.0739 234.377 56.142C234.377 59.1847 236.167 61.2045 238.826 61.2045ZM238.826 59.8494C236.806 59.8494 235.886 58.1108 235.886 56.142C235.886 54.1733 236.806 52.4091 238.826 52.4091C240.846 52.4091 241.767 54.1733 241.767 56.142C241.767 58.1108 240.846 59.8494 238.826 59.8494ZM247.086 47.9091H245.578V61H247.086V47.9091ZM253.838 61.2045C256.497 61.2045 258.287 59.1847 258.287 56.142C258.287 53.0739 256.497 51.054 253.838 51.054C251.179 51.054 249.389 53.0739 249.389 56.142C249.389 59.1847 251.179 61.2045 253.838 61.2045ZM253.838 59.8494C251.818 59.8494 250.898 58.1108 250.898 56.142C250.898 54.1733 251.818 52.4091 253.838 52.4091C255.858 52.4091 256.778 54.1733 256.778 56.142C256.778 58.1108 255.858 59.8494 253.838 59.8494ZM260.59 61H262.098V54.7869C262.098 53.4574 263.146 52.4858 264.578 52.4858C264.981 52.4858 265.396 52.5625 265.499 52.5881V51.054C265.326 51.0412 264.93 51.0284 264.706 51.0284C263.53 51.0284 262.507 51.6932 262.149 52.6648H262.047V51.1818H260.59V61Z" fill="white"/>
<path d="M95.6917 133H97.2769V127.886H100.141C100.256 127.886 100.364 127.886 100.473 127.88L103.234 133H105.075L102.116 127.592C103.784 127.023 104.564 125.662 104.564 123.923C104.564 121.609 103.183 119.909 100.115 119.909H95.6917V133ZM97.2769 126.455V121.315H100.064C102.186 121.315 103.004 122.351 103.004 123.923C103.004 125.496 102.186 126.455 100.089 126.455H97.2769ZM111.012 133.205C113.006 133.205 114.464 132.207 114.924 130.724L113.466 130.315C113.083 131.338 112.194 131.849 111.012 131.849C109.241 131.849 108.02 130.705 107.95 128.602H115.077V127.963C115.077 124.307 112.904 123.054 110.858 123.054C108.199 123.054 106.435 125.151 106.435 128.168C106.435 131.185 108.174 133.205 111.012 133.205ZM107.95 127.298C108.052 125.771 109.133 124.409 110.858 124.409C112.495 124.409 113.543 125.636 113.543 127.298H107.95ZM120.261 133.23C121.974 133.23 122.869 132.31 123.176 131.67H123.253V133H124.761V126.531C124.761 123.412 122.383 123.054 121.13 123.054C119.647 123.054 117.96 123.565 117.193 125.355L118.625 125.866C118.957 125.151 119.743 124.384 121.182 124.384C122.569 124.384 123.253 125.119 123.253 126.378V126.429C123.253 127.158 122.511 127.094 120.721 127.324C118.9 127.56 116.912 127.963 116.912 130.213C116.912 132.131 118.395 133.23 120.261 133.23ZM120.491 131.875C119.29 131.875 118.42 131.338 118.42 130.29C118.42 129.139 119.468 128.781 120.645 128.628C121.284 128.551 122.997 128.372 123.253 128.065V129.446C123.253 130.673 122.281 131.875 120.491 131.875ZM131.222 133.205C133.114 133.205 133.753 132.028 134.085 131.491H134.264V133H135.722V119.909H134.213V124.741H134.085C133.753 124.23 133.165 123.054 131.247 123.054C128.767 123.054 127.054 125.023 127.054 128.116C127.054 131.236 128.767 133.205 131.222 133.205ZM131.426 131.849C129.534 131.849 128.563 130.188 128.563 128.091C128.563 126.02 129.509 124.409 131.426 124.409C133.267 124.409 134.239 125.892 134.239 128.091C134.239 130.315 133.242 131.849 131.426 131.849ZM138.694 133H140.203V123.182H138.694V133ZM139.461 121.545C140.049 121.545 140.535 121.085 140.535 120.523C140.535 119.96 140.049 119.5 139.461 119.5C138.873 119.5 138.387 119.96 138.387 120.523C138.387 121.085 138.873 121.545 139.461 121.545ZM144.474 127.094C144.474 125.381 145.535 124.409 146.98 124.409C148.38 124.409 149.23 125.323 149.23 126.864V133H150.738V126.761C150.738 124.256 149.402 123.054 147.415 123.054C145.932 123.054 145.011 123.719 144.551 124.716H144.423V123.182H142.966V133H144.474V127.094ZM157.611 133.205C159.606 133.205 161.063 132.207 161.523 130.724L160.066 130.315C159.682 131.338 158.794 131.849 157.611 131.849C155.841 131.849 154.62 130.705 154.55 128.602H161.677V127.963C161.677 124.307 159.503 123.054 157.458 123.054C154.799 123.054 153.035 125.151 153.035 128.168C153.035 131.185 154.773 133.205 157.611 133.205ZM154.55 127.298C154.652 125.771 155.732 124.409 157.458 124.409C159.094 124.409 160.143 125.636 160.143 127.298H154.55ZM170.926 125.381C170.453 123.987 169.392 123.054 167.449 123.054C165.378 123.054 163.844 124.23 163.844 125.892C163.844 127.247 164.649 128.155 166.452 128.577L168.088 128.96C169.079 129.19 169.545 129.663 169.545 130.341C169.545 131.185 168.65 131.875 167.244 131.875C166.011 131.875 165.237 131.344 164.969 130.29L163.537 130.648C163.888 132.316 165.263 133.205 167.27 133.205C169.552 133.205 171.105 131.958 171.105 130.264C171.105 128.896 170.248 128.033 168.497 127.605L167.04 127.247C165.876 126.96 165.352 126.57 165.352 125.815C165.352 124.972 166.247 124.358 167.449 124.358C168.766 124.358 169.309 125.087 169.571 125.764L170.926 125.381ZM180.33 125.381C179.857 123.987 178.796 123.054 176.853 123.054C174.782 123.054 173.248 124.23 173.248 125.892C173.248 127.247 174.053 128.155 175.856 128.577L177.492 128.96C178.483 129.19 178.95 129.663 178.95 130.341C178.95 131.185 178.055 131.875 176.649 131.875C175.415 131.875 174.641 131.344 174.373 130.29L172.941 130.648C173.293 132.316 174.667 133.205 176.674 133.205C178.956 133.205 180.509 131.958 180.509 130.264C180.509 128.896 179.653 128.033 177.901 127.605L176.444 127.247C175.281 126.96 174.756 126.57 174.756 125.815C174.756 124.972 175.651 124.358 176.853 124.358C178.17 124.358 178.713 125.087 178.975 125.764L180.33 125.381ZM192.419 119.909H190.834L187.561 122.082V123.693L190.757 121.571H190.834V133H192.419V119.909ZM201.835 125.751H196.108V127.158H201.835V125.751ZM203.848 133H212.107V131.594H206.022V131.491L208.962 128.347C211.212 125.937 211.877 124.812 211.877 123.361C211.877 121.341 210.24 119.73 207.939 119.73C205.644 119.73 203.899 121.29 203.899 123.591H205.408C205.408 122.102 206.373 121.111 207.888 121.111C209.307 121.111 210.394 121.98 210.394 123.361C210.394 124.569 209.684 125.464 208.169 127.119L203.848 131.849V133ZM222.059 133H223.542L225.69 125.457H225.843L227.991 133H229.474L232.465 123.182H230.88L228.758 130.673H228.656L226.585 123.182H224.974L222.877 130.699H222.775L220.653 123.182H219.068L222.059 133ZM238.242 133.205C240.237 133.205 241.694 132.207 242.154 130.724L240.697 130.315C240.313 131.338 239.425 131.849 238.242 131.849C236.472 131.849 235.251 130.705 235.18 128.602H242.308V127.963C242.308 124.307 240.134 123.054 238.089 123.054C235.43 123.054 233.666 125.151 233.666 128.168C233.666 131.185 235.404 133.205 238.242 133.205ZM235.18 127.298C235.283 125.771 236.363 124.409 238.089 124.409C239.725 124.409 240.774 125.636 240.774 127.298H235.18ZM248.719 133.205C250.713 133.205 252.171 132.207 252.631 130.724L251.173 130.315C250.79 131.338 249.901 131.849 248.719 131.849C246.948 131.849 245.727 130.705 245.657 128.602H252.784V127.963C252.784 124.307 250.611 123.054 248.565 123.054C245.906 123.054 244.142 125.151 244.142 128.168C244.142 131.185 245.881 133.205 248.719 133.205ZM245.657 127.298C245.759 125.771 246.84 124.409 248.565 124.409C250.202 124.409 251.25 125.636 251.25 127.298H245.657ZM255.079 133H256.587V129.325L257.642 128.347L261.318 133H263.235L258.78 127.375L262.928 123.182H261.062L256.766 127.554H256.587V119.909H255.079V133ZM271.824 125.381C271.351 123.987 270.29 123.054 268.347 123.054C266.276 123.054 264.742 124.23 264.742 125.892C264.742 127.247 265.547 128.155 267.35 128.577L268.986 128.96C269.977 129.19 270.444 129.663 270.444 130.341C270.444 131.185 269.549 131.875 268.143 131.875C266.909 131.875 266.136 131.344 265.867 130.29L264.435 130.648C264.787 132.316 266.161 133.205 268.168 133.205C270.45 133.205 272.003 131.958 272.003 130.264C272.003 128.896 271.147 128.033 269.396 127.605L267.938 127.247C266.775 126.96 266.251 126.57 266.251 125.815C266.251 124.972 267.146 124.358 268.347 124.358C269.664 124.358 270.207 125.087 270.469 125.764L271.824 125.381Z" fill="white"/>
<path d="M106.828 18.4545C106.828 14.3125 104.399 11.7301 101.05 11.7301C97.7001 11.7301 95.2711 14.3125 95.2711 18.4545C95.2711 22.5966 97.7001 25.179 101.05 25.179C104.399 25.179 106.828 22.5966 106.828 18.4545ZM105.294 18.4545C105.294 21.8551 103.427 23.696 101.05 23.696C98.6717 23.696 96.8052 21.8551 96.8052 18.4545C96.8052 15.054 98.6717 13.2131 101.05 13.2131C103.427 13.2131 105.294 15.054 105.294 18.4545ZM110.797 19.0938C110.797 17.3807 111.858 16.4091 113.303 16.4091C114.703 16.4091 115.553 17.3232 115.553 18.8636V25H117.062V18.7614C117.062 16.2557 115.726 15.054 113.738 15.054C112.255 15.054 111.334 15.7188 110.874 16.7159H110.746V15.1818H109.289V25H110.797V19.0938ZM123.935 25.2045C125.929 25.2045 127.386 24.2074 127.847 22.7244L126.389 22.3153C126.006 23.3381 125.117 23.8494 123.935 23.8494C122.164 23.8494 120.943 22.7053 120.873 20.6023H128V19.9631C128 16.3068 125.827 15.054 123.781 15.054C121.122 15.054 119.358 17.1506 119.358 20.1676C119.358 23.1847 121.097 25.2045 123.935 25.2045ZM120.873 19.2983C120.975 17.7706 122.055 16.4091 123.781 16.4091C125.418 16.4091 126.466 17.6364 126.466 19.2983H120.873ZM139.346 25.2045C142.005 25.2045 143.795 23.1847 143.795 20.142C143.795 17.0739 142.005 15.054 139.346 15.054C136.687 15.054 134.897 17.0739 134.897 20.142C134.897 23.1847 136.687 25.2045 139.346 25.2045ZM139.346 23.8494C137.326 23.8494 136.406 22.1108 136.406 20.142C136.406 18.1733 137.326 16.4091 139.346 16.4091C141.366 16.4091 142.286 18.1733 142.286 20.142C142.286 22.1108 141.366 23.8494 139.346 23.8494ZM146.097 25H147.606V18.7869C147.606 17.4574 148.654 16.4858 150.086 16.4858C150.489 16.4858 150.904 16.5625 151.007 16.5881V15.054C150.834 15.0412 150.438 15.0284 150.214 15.0284C149.038 15.0284 148.015 15.6932 147.657 16.6648H147.555V15.1818H146.097V25ZM162.127 15.1818H160.031V12.8295H158.522V15.1818H157.039V16.4602H158.522V22.5966C158.522 24.3097 159.903 25.1278 161.181 25.1278C161.744 25.1278 162.102 25.0256 162.306 24.9489L161.999 23.5938C161.871 23.6193 161.667 23.6705 161.335 23.6705C160.67 23.6705 160.031 23.4659 160.031 22.1875V16.4602H162.127V15.1818ZM166.621 25H168.104L170.251 17.4574H170.405L172.553 25H174.036L177.027 15.1818H175.442L173.32 22.6733H173.217L171.146 15.1818H169.536L167.439 22.6989H167.337L165.214 15.1818H163.629L166.621 25ZM182.676 25.2045C185.335 25.2045 187.125 23.1847 187.125 20.142C187.125 17.0739 185.335 15.054 182.676 15.054C180.017 15.054 178.227 17.0739 178.227 20.142C178.227 23.1847 180.017 25.2045 182.676 25.2045ZM182.676 23.8494C180.656 23.8494 179.736 22.1108 179.736 20.142C179.736 18.1733 180.656 16.4091 182.676 16.4091C184.696 16.4091 185.616 18.1733 185.616 20.142C185.616 22.1108 184.696 23.8494 182.676 23.8494ZM195.999 11.9091H194.49V25H195.999V11.9091ZM202.75 25.2045C205.409 25.2045 207.199 23.1847 207.199 20.142C207.199 17.0739 205.409 15.054 202.75 15.054C200.091 15.054 198.301 17.0739 198.301 20.142C198.301 23.1847 200.091 25.2045 202.75 25.2045ZM202.75 23.8494C200.73 23.8494 199.81 22.1108 199.81 20.142C199.81 18.1733 200.73 16.4091 202.75 16.4091C204.77 16.4091 205.691 18.1733 205.691 20.142C205.691 22.1108 204.77 23.8494 202.75 23.8494ZM213.49 25.2045C215.664 25.2045 217.096 23.875 217.351 22.1364H215.843C215.561 23.2102 214.667 23.8494 213.49 23.8494C211.701 23.8494 210.55 22.3665 210.55 20.0909C210.55 17.8665 211.726 16.4091 213.49 16.4091C214.82 16.4091 215.613 17.2273 215.843 18.1222H217.351C217.096 16.2812 215.536 15.054 213.465 15.054C210.806 15.054 209.042 17.1506 209.042 20.142C209.042 23.0824 210.729 25.2045 213.49 25.2045ZM222.446 25.2301C224.159 25.2301 225.054 24.3097 225.36 23.6705H225.437V25H226.946V18.5312C226.946 15.4119 224.568 15.054 223.315 15.054C221.832 15.054 220.145 15.5653 219.377 17.3551L220.809 17.8665C221.142 17.1506 221.928 16.3835 223.366 16.3835C224.753 16.3835 225.437 17.1186 225.437 18.3778V18.429C225.437 19.1577 224.696 19.0938 222.906 19.3239C221.084 19.5604 219.096 19.9631 219.096 22.2131C219.096 24.1307 220.579 25.2301 222.446 25.2301ZM222.676 23.875C221.474 23.875 220.605 23.3381 220.605 22.2898C220.605 21.1392 221.653 20.7812 222.829 20.6278C223.468 20.5511 225.181 20.3722 225.437 20.0653V21.446C225.437 22.6733 224.466 23.875 222.676 23.875ZM233.969 15.1818H231.872V12.8295H230.364V15.1818H228.881V16.4602H230.364V22.5966C230.364 24.3097 231.744 25.1278 233.023 25.1278C233.585 25.1278 233.943 25.0256 234.148 24.9489L233.841 23.5938C233.713 23.6193 233.509 23.6705 233.176 23.6705C232.512 23.6705 231.872 23.4659 231.872 22.1875V16.4602H233.969V15.1818ZM236.238 25H237.747V15.1818H236.238V25ZM237.005 13.5455C237.593 13.5455 238.079 13.0852 238.079 12.5227C238.079 11.9602 237.593 11.5 237.005 11.5C236.417 11.5 235.931 11.9602 235.931 12.5227C235.931 13.0852 236.417 13.5455 237.005 13.5455ZM244.498 25.2045C247.157 25.2045 248.947 23.1847 248.947 20.142C248.947 17.0739 247.157 15.054 244.498 15.054C241.839 15.054 240.049 17.0739 240.049 20.142C240.049 23.1847 241.839 25.2045 244.498 25.2045ZM244.498 23.8494C242.478 23.8494 241.558 22.1108 241.558 20.142C241.558 18.1733 242.478 16.4091 244.498 16.4091C246.518 16.4091 247.439 18.1733 247.439 20.142C247.439 22.1108 246.518 23.8494 244.498 23.8494ZM252.758 19.0938C252.758 17.3807 253.819 16.4091 255.264 16.4091C256.664 16.4091 257.514 17.3232 257.514 18.8636V25H259.023V18.7614C259.023 16.2557 257.687 15.054 255.699 15.054C254.216 15.054 253.295 15.7188 252.835 16.7159H252.707V15.1818H251.25V25H252.758V19.0938ZM268.734 17.3807C268.261 15.9872 267.2 15.054 265.256 15.054C263.185 15.054 261.651 16.2301 261.651 17.892C261.651 19.2472 262.457 20.1548 264.259 20.5767L265.896 20.9602C266.886 21.1903 267.353 21.6634 267.353 22.3409C267.353 23.1847 266.458 23.875 265.052 23.875C263.818 23.875 263.045 23.3445 262.776 22.2898L261.344 22.6477C261.696 24.3161 263.07 25.2045 265.077 25.2045C267.359 25.2045 268.913 23.9581 268.913 22.2642C268.913 20.8963 268.056 20.0334 266.305 19.6051L264.847 19.2472C263.684 18.9595 263.16 18.5696 263.16 17.8153C263.16 16.9716 264.055 16.358 265.256 16.358C266.573 16.358 267.116 17.0866 267.379 17.7642L268.734 17.3807Z" fill="white"/>
<path d="M115.635 155.909V169H117.118V159.054H117.246L121.337 169H122.769L126.859 159.054H126.987V169H128.47V155.909H126.578L122.129 166.776H121.976L117.527 155.909H115.635ZM134.333 169.23C136.046 169.23 136.941 168.31 137.248 167.67H137.325V169H138.833V162.531C138.833 159.412 136.456 159.054 135.203 159.054C133.72 159.054 132.032 159.565 131.265 161.355L132.697 161.866C133.029 161.151 133.816 160.384 135.254 160.384C136.641 160.384 137.325 161.119 137.325 162.378V162.429C137.325 163.158 136.583 163.094 134.794 163.324C132.972 163.56 130.984 163.963 130.984 166.213C130.984 168.131 132.467 169.23 134.333 169.23ZM134.563 167.875C133.362 167.875 132.492 167.338 132.492 166.29C132.492 165.139 133.541 164.781 134.717 164.628C135.356 164.551 137.069 164.372 137.325 164.065V165.446C137.325 166.673 136.353 167.875 134.563 167.875ZM141.587 169H143.095V165.325L144.15 164.347L147.825 169H149.743L145.288 163.375L149.436 159.182H147.57L143.274 163.554H143.095V155.909H141.587V169ZM155.09 169.205C157.084 169.205 158.542 168.207 159.002 166.724L157.544 166.315C157.161 167.338 156.272 167.849 155.09 167.849C153.319 167.849 152.098 166.705 152.028 164.602H159.155V163.963C159.155 160.307 156.982 159.054 154.937 159.054C152.277 159.054 150.513 161.151 150.513 164.168C150.513 167.185 152.252 169.205 155.09 169.205ZM152.028 163.298C152.13 161.771 153.211 160.409 154.937 160.409C156.573 160.409 157.621 161.636 157.621 163.298H152.028ZM172.7 164.986C172.7 166.827 171.294 167.67 170.169 167.67C168.916 167.67 168.021 166.75 168.021 165.318V159.182H166.513V165.42C166.513 167.926 167.842 169.128 169.683 169.128C171.166 169.128 172.138 168.335 172.598 167.338H172.7V169H174.209V159.182H172.7V164.986ZM176.972 172.682H178.48V167.491H178.608C178.94 168.028 179.579 169.205 181.472 169.205C183.926 169.205 185.639 167.236 185.639 164.116C185.639 161.023 183.926 159.054 181.446 159.054C179.528 159.054 178.94 160.23 178.608 160.741H178.429V159.182H176.972V172.682ZM178.454 164.091C178.454 161.892 179.426 160.409 181.267 160.409C183.185 160.409 184.131 162.02 184.131 164.091C184.131 166.188 183.159 167.849 181.267 167.849C179.452 167.849 178.454 166.315 178.454 164.091ZM190.19 167.21H188.554L188.477 167.926C188.292 169.658 187.927 171.384 187.761 172.196H188.912C189.219 171.327 189.871 169.358 190.088 167.901L190.19 167.21ZM206.076 159.182H204.44L201.729 167.006H201.627L198.917 159.182H197.281L200.911 169H202.445L206.076 159.182ZM208.067 169H209.576V159.182H208.067V169ZM208.834 157.545C209.422 157.545 209.908 157.085 209.908 156.523C209.908 155.96 209.422 155.5 208.834 155.5C208.246 155.5 207.76 155.96 207.76 156.523C207.76 157.085 208.246 157.545 208.834 157.545ZM219.293 161.381C218.82 159.987 217.759 159.054 215.816 159.054C213.745 159.054 212.211 160.23 212.211 161.892C212.211 163.247 213.016 164.155 214.819 164.577L216.455 164.96C217.446 165.19 217.913 165.663 217.913 166.341C217.913 167.185 217.018 167.875 215.611 167.875C214.378 167.875 213.604 167.344 213.336 166.29L211.904 166.648C212.256 168.316 213.63 169.205 215.637 169.205C217.919 169.205 219.472 167.958 219.472 166.264C219.472 164.896 218.616 164.033 216.864 163.605L215.407 163.247C214.244 162.96 213.719 162.57 213.719 161.815C213.719 160.972 214.614 160.358 215.816 160.358C217.133 160.358 217.676 161.087 217.938 161.764L219.293 161.381ZM224.632 169.23C226.345 169.23 227.24 168.31 227.547 167.67H227.624V169H229.132V162.531C229.132 159.412 226.754 159.054 225.502 159.054C224.019 159.054 222.331 159.565 221.564 161.355L222.996 161.866C223.328 161.151 224.114 160.384 225.553 160.384C226.94 160.384 227.624 161.119 227.624 162.378V162.429C227.624 163.158 226.882 163.094 225.092 163.324C223.271 163.56 221.283 163.963 221.283 166.213C221.283 168.131 222.766 169.23 224.632 169.23ZM224.862 167.875C223.661 167.875 222.791 167.338 222.791 166.29C222.791 165.139 223.84 164.781 225.016 164.628C225.655 164.551 227.368 164.372 227.624 164.065V165.446C227.624 166.673 226.652 167.875 224.862 167.875ZM235.849 172.886C238.201 172.886 240.093 171.812 240.093 169.281V159.182H238.636V160.741H238.482C238.15 160.23 237.536 159.054 235.619 159.054C233.138 159.054 231.425 161.023 231.425 164.04C231.425 167.108 233.215 168.847 235.593 168.847C237.511 168.847 238.124 167.722 238.457 167.185H238.584V169.179C238.584 170.815 237.434 171.557 235.849 171.557C234.065 171.557 233.439 170.617 233.036 170.074L231.834 170.918C232.448 171.947 233.656 172.886 235.849 172.886ZM235.797 167.491C233.905 167.491 232.934 166.06 232.934 164.014C232.934 162.02 233.88 160.409 235.797 160.409C237.638 160.409 238.61 161.892 238.61 164.014C238.61 166.188 237.613 167.491 235.797 167.491ZM246.971 169.205C248.965 169.205 250.422 168.207 250.883 166.724L249.425 166.315C249.042 167.338 248.153 167.849 246.971 167.849C245.2 167.849 243.979 166.705 243.909 164.602H251.036V163.963C251.036 160.307 248.863 159.054 246.817 159.054C244.158 159.054 242.394 161.151 242.394 164.168C242.394 167.185 244.133 169.205 246.971 169.205ZM243.909 163.298C244.011 161.771 245.092 160.409 246.817 160.409C248.454 160.409 249.502 161.636 249.502 163.298H243.909Z" fill="white"/>
<path d="M95.7272 97H103.986V95.5938H97.9005V95.4915L100.841 92.3466C103.091 89.9368 103.756 88.8118 103.756 87.3608C103.756 85.3409 102.119 83.7301 99.8181 83.7301C97.5233 83.7301 95.7783 85.2898 95.7783 87.5909H97.2868C97.2868 86.1016 98.252 85.1108 99.767 85.1108C101.186 85.1108 102.273 85.9801 102.273 87.3608C102.273 88.5689 101.563 89.4638 100.048 91.1193L95.7272 95.8494V97ZM110.896 97.179C113.785 97.179 115.447 94.7308 115.447 90.4545C115.447 86.2102 113.759 83.7301 110.896 83.7301C108.032 83.7301 106.344 86.2102 106.344 90.4545C106.344 94.7308 108.006 97.179 110.896 97.179ZM110.896 95.7727C108.991 95.7727 107.878 93.8615 107.878 90.4545C107.878 87.054 109.003 85.1108 110.896 85.1108C112.788 85.1108 113.913 87.054 113.913 90.4545C113.913 93.8615 112.8 95.7727 110.896 95.7727ZM122.964 100.682H124.472V95.4915H124.6C124.932 96.0284 125.572 97.2045 127.464 97.2045C129.918 97.2045 131.631 95.2358 131.631 92.1165C131.631 89.0227 129.918 87.054 127.438 87.054C125.521 87.054 124.932 88.2301 124.6 88.7415H124.421V87.1818H122.964V100.682ZM124.447 92.0909C124.447 89.892 125.418 88.4091 127.259 88.4091C129.177 88.4091 130.123 90.0199 130.123 92.0909C130.123 94.1875 129.151 95.8494 127.259 95.8494C125.444 95.8494 124.447 94.3153 124.447 92.0909ZM135.441 91.0938C135.441 89.3807 136.534 88.4091 138.023 88.4091C139.442 88.4091 140.299 89.304 140.299 90.8636V97H141.807V90.7614C141.807 88.2365 140.465 87.054 138.458 87.054C136.911 87.054 136.029 87.6996 135.569 88.7159H135.441V83.9091H133.932V97H135.441V91.0938ZM148.556 97.2045C151.215 97.2045 153.005 95.1847 153.005 92.142C153.005 89.0739 151.215 87.054 148.556 87.054C145.897 87.054 144.107 89.0739 144.107 92.142C144.107 95.1847 145.897 97.2045 148.556 97.2045ZM148.556 95.8494C146.536 95.8494 145.616 94.1108 145.616 92.142C145.616 90.1733 146.536 88.4091 148.556 88.4091C150.576 88.4091 151.496 90.1733 151.496 92.142C151.496 94.1108 150.576 95.8494 148.556 95.8494ZM159.577 87.1818H157.481V84.8295H155.972V87.1818H154.489V88.4602H155.972V94.5966C155.972 96.3097 157.353 97.1278 158.631 97.1278C159.194 97.1278 159.552 97.0256 159.756 96.9489L159.449 95.5938C159.322 95.6193 159.117 95.6705 158.785 95.6705C158.12 95.6705 157.481 95.4659 157.481 94.1875V88.4602H159.577V87.1818ZM165.73 97.2045C168.389 97.2045 170.179 95.1847 170.179 92.142C170.179 89.0739 168.389 87.054 165.73 87.054C163.071 87.054 161.281 89.0739 161.281 92.142C161.281 95.1847 163.071 97.2045 165.73 97.2045ZM165.73 95.8494C163.71 95.8494 162.789 94.1108 162.789 92.142C162.789 90.1733 163.71 88.4091 165.73 88.4091C167.75 88.4091 168.67 90.1733 168.67 92.142C168.67 94.1108 167.75 95.8494 165.73 95.8494ZM179.436 89.3807C178.963 87.9872 177.902 87.054 175.959 87.054C173.888 87.054 172.353 88.2301 172.353 89.892C172.353 91.2472 173.159 92.1548 174.961 92.5767L176.598 92.9602C177.589 93.1903 178.055 93.6634 178.055 94.3409C178.055 95.1847 177.16 95.875 175.754 95.875C174.52 95.875 173.747 95.3445 173.478 94.2898L172.047 94.6477C172.398 96.3161 173.772 97.2045 175.78 97.2045C178.062 97.2045 179.615 95.9581 179.615 94.2642C179.615 92.8963 178.758 92.0334 177.007 91.6051L175.549 91.2472C174.386 90.9595 173.862 90.5696 173.862 89.8153C173.862 88.9716 174.757 88.358 175.959 88.358C177.275 88.358 177.819 89.0866 178.081 89.7642L179.436 89.3807ZM186.948 97H188.457V87.1818H186.948V97ZM187.715 85.5455C188.303 85.5455 188.789 85.0852 188.789 84.5227C188.789 83.9602 188.303 83.5 187.715 83.5C187.127 83.5 186.641 83.9602 186.641 84.5227C186.641 85.0852 187.127 85.5455 187.715 85.5455ZM192.728 91.0938C192.728 89.3807 193.789 88.4091 195.234 88.4091C196.634 88.4091 197.484 89.3232 197.484 90.8636V97H198.992V90.7614C198.992 88.2557 197.656 87.054 195.668 87.054C194.185 87.054 193.265 87.7188 192.805 88.7159H192.677V87.1818H191.22V97H192.728V91.0938ZM206.811 97H208.32V90.7869C208.32 89.4574 209.368 88.4858 210.8 88.4858C211.203 88.4858 211.618 88.5625 211.72 88.5881V87.054C211.548 87.0412 211.152 87.0284 210.928 87.0284C209.752 87.0284 208.729 87.6932 208.371 88.6648H208.269V87.1818H206.811V97ZM217.326 97.2045C219.321 97.2045 220.778 96.2074 221.238 94.7244L219.781 94.3153C219.397 95.3381 218.509 95.8494 217.326 95.8494C215.556 95.8494 214.335 94.7053 214.264 92.6023H221.392V91.9631C221.392 88.3068 219.218 87.054 217.173 87.054C214.514 87.054 212.75 89.1506 212.75 92.1676C212.75 95.1847 214.488 97.2045 217.326 97.2045ZM214.264 91.2983C214.367 89.7706 215.447 88.4091 217.173 88.4091C218.809 88.4091 219.858 89.6364 219.858 91.2983H214.264ZM227.956 87.1818H225.86V84.8295H224.351V87.1818H222.868V88.4602H224.351V94.5966C224.351 96.3097 225.732 97.1278 227.01 97.1278C227.573 97.1278 227.931 97.0256 228.135 96.9489L227.828 95.5938C227.701 95.6193 227.496 95.6705 227.164 95.6705C226.499 95.6705 225.86 95.4659 225.86 94.1875V88.4602H227.956V87.1818ZM234.109 97.2045C236.768 97.2045 238.557 95.1847 238.557 92.142C238.557 89.0739 236.768 87.054 234.109 87.054C231.449 87.054 229.66 89.0739 229.66 92.142C229.66 95.1847 231.449 97.2045 234.109 97.2045ZM234.109 95.8494C232.089 95.8494 231.168 94.1108 231.168 92.142C231.168 90.1733 232.089 88.4091 234.109 88.4091C236.128 88.4091 237.049 90.1733 237.049 92.142C237.049 94.1108 236.128 95.8494 234.109 95.8494ZM247.048 92.9858C247.048 94.8267 245.641 95.6705 244.516 95.6705C243.264 95.6705 242.369 94.75 242.369 93.3182V87.1818H240.86V93.4205C240.86 95.9261 242.19 97.1278 244.031 97.1278C245.514 97.1278 246.485 96.3352 246.945 95.3381H247.048V97H248.556V87.1818H247.048V92.9858ZM255.308 97.2045C257.481 97.2045 258.913 95.875 259.169 94.1364H257.66C257.379 95.2102 256.484 95.8494 255.308 95.8494C253.518 95.8494 252.367 94.3665 252.367 92.0909C252.367 89.8665 253.544 88.4091 255.308 88.4091C256.637 88.4091 257.43 89.2273 257.66 90.1222H259.169C258.913 88.2812 257.353 87.054 255.282 87.054C252.623 87.054 250.859 89.1506 250.859 92.142C250.859 95.0824 252.546 97.2045 255.308 97.2045ZM262.882 91.0938C262.882 89.3807 263.975 88.4091 265.465 88.4091C266.884 88.4091 267.74 89.304 267.74 90.8636V97H269.249V90.7614C269.249 88.2365 267.907 87.054 265.899 87.054C264.353 87.054 263.47 87.6996 263.01 88.7159H262.882V83.9091H261.374V97H262.882V91.0938Z" fill="white"/>
</svg>
