<svg width="365" height="180" viewBox="0 0 365 180" fill="none" xmlns="http://www.w3.org/2000/svg">
<path d="M105.091 61.179C107.629 61.179 109.514 59.5874 109.514 57.446C109.514 55.7841 108.53 54.576 106.881 54.3011V54.1989C108.204 53.7962 109.028 52.7095 109.028 51.233C109.028 49.3793 107.565 47.7301 105.142 47.7301C102.879 47.7301 101 49.1236 100.923 51.1818H102.457C102.515 49.8778 103.755 49.1108 105.116 49.1108C106.561 49.1108 107.494 49.9865 107.494 51.3097C107.494 52.6903 106.414 53.5852 104.861 53.5852H103.812V54.9915H104.861C106.849 54.9915 107.955 56.0014 107.955 57.446C107.955 58.8331 106.746 59.7727 105.065 59.7727C103.55 59.7727 102.349 58.9929 102.253 57.7273H100.642C100.738 59.7855 102.553 61.179 105.091 61.179ZM116.398 61.179C119.288 61.179 120.95 58.7308 120.95 54.4545C120.95 50.2102 119.262 47.7301 116.398 47.7301C113.535 47.7301 111.847 50.2102 111.847 54.4545C111.847 58.7308 113.509 61.179 116.398 61.179ZM116.398 59.7727C114.494 59.7727 113.381 57.8615 113.381 54.4545C113.381 51.054 114.506 49.1108 116.398 49.1108C118.29 49.1108 119.415 51.054 119.415 54.4545C119.415 57.8615 118.303 59.7727 116.398 59.7727ZM127.648 61.179C130.538 61.179 132.2 58.7308 132.2 54.4545C132.2 50.2102 130.512 47.7301 127.648 47.7301C124.785 47.7301 123.097 50.2102 123.097 54.4545C123.097 58.7308 124.759 61.179 127.648 61.179ZM127.648 59.7727C125.744 59.7727 124.631 57.8615 124.631 54.4545C124.631 51.054 125.756 49.1108 127.648 49.1108C129.54 49.1108 130.665 51.054 130.665 54.4545C130.665 57.8615 129.553 59.7727 127.648 59.7727ZM139.717 64.6818H141.225V59.4915H141.353C141.685 60.0284 142.325 61.2045 144.217 61.2045C146.671 61.2045 148.384 59.2358 148.384 56.1165C148.384 53.0227 146.671 51.054 144.191 51.054C142.273 51.054 141.685 52.2301 141.353 52.7415H141.174V51.1818H139.717V64.6818ZM141.2 56.0909C141.2 53.892 142.171 52.4091 144.012 52.4091C145.93 52.4091 146.876 54.0199 146.876 56.0909C146.876 58.1875 145.904 59.8494 144.012 59.8494C142.197 59.8494 141.2 58.3153 141.2 56.0909ZM152.194 55.0938C152.194 53.3807 153.287 52.4091 154.776 52.4091C156.195 52.4091 157.052 53.304 157.052 54.8636V61H158.56V54.7614C158.56 52.2365 157.218 51.054 155.211 51.054C153.664 51.054 152.782 51.6996 152.322 52.7159H152.194V47.9091H150.685V61H152.194V55.0938ZM165.309 61.2045C167.968 61.2045 169.758 59.1847 169.758 56.142C169.758 53.0739 167.968 51.054 165.309 51.054C162.65 51.054 160.86 53.0739 160.86 56.142C160.86 59.1847 162.65 61.2045 165.309 61.2045ZM165.309 59.8494C163.289 59.8494 162.368 58.1108 162.368 56.142C162.368 54.1733 163.289 52.4091 165.309 52.4091C167.329 52.4091 168.249 54.1733 168.249 56.142C168.249 58.1108 167.329 59.8494 165.309 59.8494ZM176.33 51.1818H174.234V48.8295H172.725V51.1818H171.242V52.4602H172.725V58.5966C172.725 60.3097 174.106 61.1278 175.384 61.1278C175.947 61.1278 176.305 61.0256 176.509 60.9489L176.202 59.5938C176.075 59.6193 175.87 59.6705 175.538 59.6705C174.873 59.6705 174.234 59.4659 174.234 58.1875V52.4602H176.33V51.1818ZM182.483 61.2045C185.142 61.2045 186.931 59.1847 186.931 56.142C186.931 53.0739 185.142 51.054 182.483 51.054C179.824 51.054 178.034 53.0739 178.034 56.142C178.034 59.1847 179.824 61.2045 182.483 61.2045ZM182.483 59.8494C180.463 59.8494 179.542 58.1108 179.542 56.142C179.542 54.1733 180.463 52.4091 182.483 52.4091C184.502 52.4091 185.423 54.1733 185.423 56.142C185.423 58.1108 184.502 59.8494 182.483 59.8494ZM196.189 53.3807C195.716 51.9872 194.655 51.054 192.711 51.054C190.64 51.054 189.106 52.2301 189.106 53.892C189.106 55.2472 189.912 56.1548 191.714 56.5767L193.351 56.9602C194.341 57.1903 194.808 57.6634 194.808 58.3409C194.808 59.1847 193.913 59.875 192.507 59.875C191.273 59.875 190.5 59.3445 190.231 58.2898L188.8 58.6477C189.151 60.3161 190.525 61.2045 192.532 61.2045C194.814 61.2045 196.368 59.9581 196.368 58.2642C196.368 56.8963 195.511 56.0334 193.76 55.6051L192.302 55.2472C191.139 54.9595 190.615 54.5696 190.615 53.8153C190.615 52.9716 191.51 52.358 192.711 52.358C194.028 52.358 194.572 53.0866 194.834 53.7642L196.189 53.3807ZM203.701 61H205.21V51.1818H203.701V61ZM204.468 49.5455C205.056 49.5455 205.542 49.0852 205.542 48.5227C205.542 47.9602 205.056 47.5 204.468 47.5C203.88 47.5 203.394 47.9602 203.394 48.5227C203.394 49.0852 203.88 49.5455 204.468 49.5455ZM209.481 55.0938C209.481 53.3807 210.542 52.4091 211.987 52.4091C213.387 52.4091 214.237 53.3232 214.237 54.8636V61H215.745V54.7614C215.745 52.2557 214.409 51.054 212.421 51.054C210.938 51.054 210.018 51.7188 209.558 52.7159H209.43V51.1818H207.972V61H209.481V55.0938ZM227.553 61.2045C229.726 61.2045 231.158 59.875 231.414 58.1364H229.905C229.624 59.2102 228.729 59.8494 227.553 59.8494C225.763 59.8494 224.613 58.3665 224.613 56.0909C224.613 53.8665 225.789 52.4091 227.553 52.4091C228.882 52.4091 229.675 53.2273 229.905 54.1222H231.414C231.158 52.2812 229.598 51.054 227.527 51.054C224.868 51.054 223.104 53.1506 223.104 56.142C223.104 59.0824 224.792 61.2045 227.553 61.2045ZM237.608 61.2045C240.267 61.2045 242.056 59.1847 242.056 56.142C242.056 53.0739 240.267 51.054 237.608 51.054C234.949 51.054 233.159 53.0739 233.159 56.142C233.159 59.1847 234.949 61.2045 237.608 61.2045ZM237.608 59.8494C235.588 59.8494 234.667 58.1108 234.667 56.142C234.667 54.1733 235.588 52.4091 237.608 52.4091C239.627 52.4091 240.548 54.1733 240.548 56.142C240.548 58.1108 239.627 59.8494 237.608 59.8494ZM245.868 47.9091H244.359V61H245.868V47.9091ZM252.619 61.2045C255.278 61.2045 257.068 59.1847 257.068 56.142C257.068 53.0739 255.278 51.054 252.619 51.054C249.96 51.054 248.17 53.0739 248.17 56.142C248.17 59.1847 249.96 61.2045 252.619 61.2045ZM252.619 59.8494C250.599 59.8494 249.679 58.1108 249.679 56.142C249.679 54.1733 250.599 52.4091 252.619 52.4091C254.639 52.4091 255.56 54.1733 255.56 56.142C255.56 58.1108 254.639 59.8494 252.619 59.8494ZM259.371 61H260.879V54.7869C260.879 53.4574 261.928 52.4858 263.36 52.4858C263.762 52.4858 264.178 52.5625 264.28 52.5881V51.054C264.107 51.0412 263.711 51.0284 263.487 51.0284C262.311 51.0284 261.289 51.6932 260.931 52.6648H260.828V51.1818H259.371V61Z" fill="white"/>
<path d="M109.675 133H111.26V127.886H114.124C114.239 127.886 114.348 127.886 114.456 127.88L117.218 133H119.059L116.099 127.592C117.767 127.023 118.547 125.662 118.547 123.923C118.547 121.609 117.167 119.909 114.098 119.909H109.675V133ZM111.26 126.455V121.315H114.047C116.169 121.315 116.988 122.351 116.988 123.923C116.988 125.496 116.169 126.455 114.073 126.455H111.26ZM124.995 133.205C126.99 133.205 128.447 132.207 128.907 130.724L127.45 130.315C127.066 131.338 126.178 131.849 124.995 131.849C123.225 131.849 122.004 130.705 121.933 128.602H129.061V127.963C129.061 124.307 126.887 123.054 124.842 123.054C122.183 123.054 120.419 125.151 120.419 128.168C120.419 131.185 122.157 133.205 124.995 133.205ZM121.933 127.298C122.036 125.771 123.116 124.409 124.842 124.409C126.478 124.409 127.526 125.636 127.526 127.298H121.933ZM134.244 133.23C135.958 133.23 136.852 132.31 137.159 131.67H137.236V133H138.744V126.531C138.744 123.412 136.367 123.054 135.114 123.054C133.631 123.054 131.943 123.565 131.176 125.355L132.608 125.866C132.941 125.151 133.727 124.384 135.165 124.384C136.552 124.384 137.236 125.119 137.236 126.378V126.429C137.236 127.158 136.494 127.094 134.705 127.324C132.883 127.56 130.895 127.963 130.895 130.213C130.895 132.131 132.378 133.23 134.244 133.23ZM134.475 131.875C133.273 131.875 132.404 131.338 132.404 130.29C132.404 129.139 133.452 128.781 134.628 128.628C135.267 128.551 136.98 128.372 137.236 128.065V129.446C137.236 130.673 136.264 131.875 134.475 131.875ZM145.205 133.205C147.097 133.205 147.737 132.028 148.069 131.491H148.248V133H149.705V119.909H148.197V124.741H148.069C147.737 124.23 147.148 123.054 145.231 123.054C142.751 123.054 141.038 125.023 141.038 128.116C141.038 131.236 142.751 133.205 145.205 133.205ZM145.41 131.849C143.518 131.849 142.546 130.188 142.546 128.091C142.546 126.02 143.492 124.409 145.41 124.409C147.251 124.409 148.222 125.892 148.222 128.091C148.222 130.315 147.225 131.849 145.41 131.849ZM152.678 133H154.186V123.182H152.678V133ZM153.445 121.545C154.033 121.545 154.518 121.085 154.518 120.523C154.518 119.96 154.033 119.5 153.445 119.5C152.857 119.5 152.371 119.96 152.371 120.523C152.371 121.085 152.857 121.545 153.445 121.545ZM158.458 127.094C158.458 125.381 159.519 124.409 160.963 124.409C162.363 124.409 163.213 125.323 163.213 126.864V133H164.722V126.761C164.722 124.256 163.386 123.054 161.398 123.054C159.915 123.054 158.994 123.719 158.534 124.716H158.406V123.182H156.949V133H158.458V127.094ZM171.595 133.205C173.589 133.205 175.047 132.207 175.507 130.724L174.049 130.315C173.666 131.338 172.777 131.849 171.595 131.849C169.824 131.849 168.603 130.705 168.533 128.602H175.66V127.963C175.66 124.307 173.487 123.054 171.441 123.054C168.782 123.054 167.018 125.151 167.018 128.168C167.018 131.185 168.757 133.205 171.595 133.205ZM168.533 127.298C168.635 125.771 169.716 124.409 171.441 124.409C173.078 124.409 174.126 125.636 174.126 127.298H168.533ZM184.909 125.381C184.436 123.987 183.375 123.054 181.432 123.054C179.361 123.054 177.827 124.23 177.827 125.892C177.827 127.247 178.632 128.155 180.435 128.577L182.071 128.96C183.062 129.19 183.529 129.663 183.529 130.341C183.529 131.185 182.634 131.875 181.228 131.875C179.994 131.875 179.221 131.344 178.952 130.29L177.52 130.648C177.872 132.316 179.246 133.205 181.253 133.205C183.535 133.205 185.088 131.958 185.088 130.264C185.088 128.896 184.232 128.033 182.48 127.605L181.023 127.247C179.86 126.96 179.336 126.57 179.336 125.815C179.336 124.972 180.23 124.358 181.432 124.358C182.749 124.358 183.292 125.087 183.554 125.764L184.909 125.381ZM194.314 125.381C193.841 123.987 192.78 123.054 190.836 123.054C188.765 123.054 187.231 124.23 187.231 125.892C187.231 127.247 188.037 128.155 189.839 128.577L191.476 128.96C192.466 129.19 192.933 129.663 192.933 130.341C192.933 131.185 192.038 131.875 190.632 131.875C189.398 131.875 188.625 131.344 188.356 130.29L186.925 130.648C187.276 132.316 188.65 133.205 190.657 133.205C192.939 133.205 194.493 131.958 194.493 130.264C194.493 128.896 193.636 128.033 191.885 127.605L190.427 127.247C189.264 126.96 188.74 126.57 188.74 125.815C188.74 124.972 189.635 124.358 190.836 124.358C192.153 124.358 192.697 125.087 192.959 125.764L194.314 125.381ZM206.403 119.909H204.817L201.545 122.082V123.693L204.741 121.571H204.817V133H206.403V119.909ZM217.48 133H218.963L221.111 125.457H221.264L223.412 133H224.895L227.886 123.182H226.301L224.179 130.673H224.077L222.006 123.182H220.395L218.298 130.699H218.196L216.074 123.182H214.489L217.48 133ZM233.663 133.205C235.657 133.205 237.115 132.207 237.575 130.724L236.118 130.315C235.734 131.338 234.846 131.849 233.663 131.849C231.893 131.849 230.672 130.705 230.601 128.602H237.729V127.963C237.729 124.307 235.555 123.054 233.51 123.054C230.851 123.054 229.086 125.151 229.086 128.168C229.086 131.185 230.825 133.205 233.663 133.205ZM230.601 127.298C230.704 125.771 231.784 124.409 233.51 124.409C235.146 124.409 236.194 125.636 236.194 127.298H230.601ZM244.14 133.205C246.134 133.205 247.591 132.207 248.052 130.724L246.594 130.315C246.211 131.338 245.322 131.849 244.14 131.849C242.369 131.849 241.148 130.705 241.078 128.602H248.205V127.963C248.205 124.307 246.032 123.054 243.986 123.054C241.327 123.054 239.563 125.151 239.563 128.168C239.563 131.185 241.302 133.205 244.14 133.205ZM241.078 127.298C241.18 125.771 242.26 124.409 243.986 124.409C245.623 124.409 246.671 125.636 246.671 127.298H241.078ZM250.5 133H252.008V129.325L253.063 128.347L256.738 133H258.656L254.201 127.375L258.349 123.182H256.483L252.187 127.554H252.008V119.909H250.5V133Z" fill="white"/>
<path d="M82.3127 13.3153H86.4292V25H88.0144V13.3153H92.1309V11.9091H82.3127V13.3153ZM95.8814 19.0938C95.8814 17.3807 96.9744 16.4091 98.4638 16.4091C99.8828 16.4091 100.739 17.304 100.739 18.8636V25H102.248V18.7614C102.248 16.2365 100.906 15.054 98.8984 15.054C97.3516 15.054 96.4695 15.6996 96.0092 16.7159H95.8814V11.9091H94.3729V25H95.8814V19.0938ZM105.008 25H106.516V18.7869C106.516 17.4574 107.564 16.4858 108.996 16.4858C109.399 16.4858 109.814 16.5625 109.917 16.5881V15.054C109.744 15.0412 109.348 15.0284 109.124 15.0284C107.948 15.0284 106.925 15.6932 106.567 16.6648H106.465V15.1818H105.008V25ZM115.523 25.2045C117.517 25.2045 118.974 24.2074 119.434 22.7244L117.977 22.3153C117.594 23.3381 116.705 23.8494 115.523 23.8494C113.752 23.8494 112.531 22.7053 112.461 20.6023H119.588V19.9631C119.588 16.3068 117.415 15.054 115.369 15.054C112.71 15.054 110.946 17.1506 110.946 20.1676C110.946 23.1847 112.684 25.2045 115.523 25.2045ZM112.461 19.2983C112.563 17.7706 113.643 16.4091 115.369 16.4091C117.006 16.4091 118.054 17.6364 118.054 19.2983H112.461ZM125.999 25.2045C127.993 25.2045 129.451 24.2074 129.911 22.7244L128.454 22.3153C128.07 23.3381 127.182 23.8494 125.999 23.8494C124.229 23.8494 123.008 22.7053 122.937 20.6023H130.064V19.9631C130.064 16.3068 127.891 15.054 125.846 15.054C123.187 15.054 121.422 17.1506 121.422 20.1676C121.422 23.1847 123.161 25.2045 125.999 25.2045ZM122.937 19.2983C123.04 17.7706 124.12 16.4091 125.846 16.4091C127.482 16.4091 128.53 17.6364 128.53 19.2983H122.937ZM138.93 11.9091H137.422V25H138.93V11.9091ZM145.682 25.2045C148.341 25.2045 150.131 23.1847 150.131 20.142C150.131 17.0739 148.341 15.054 145.682 15.054C143.023 15.054 141.233 17.0739 141.233 20.142C141.233 23.1847 143.023 25.2045 145.682 25.2045ZM145.682 23.8494C143.662 23.8494 142.741 22.1108 142.741 20.142C142.741 18.1733 143.662 16.4091 145.682 16.4091C147.702 16.4091 148.622 18.1733 148.622 20.142C148.622 22.1108 147.702 23.8494 145.682 23.8494ZM156.422 25.2045C158.595 25.2045 160.027 23.875 160.283 22.1364H158.774C158.493 23.2102 157.598 23.8494 156.422 23.8494C154.632 23.8494 153.482 22.3665 153.482 20.0909C153.482 17.8665 154.658 16.4091 156.422 16.4091C157.752 16.4091 158.544 17.2273 158.774 18.1222H160.283C160.027 16.2812 158.468 15.054 156.396 15.054C153.737 15.054 151.973 17.1506 151.973 20.142C151.973 23.0824 153.661 25.2045 156.422 25.2045ZM165.377 25.2301C167.09 25.2301 167.985 24.3097 168.292 23.6705H168.369V25H169.877V18.5312C169.877 15.4119 167.499 15.054 166.247 15.054C164.764 15.054 163.076 15.5653 162.309 17.3551L163.741 17.8665C164.073 17.1506 164.86 16.3835 166.298 16.3835C167.685 16.3835 168.369 17.1186 168.369 18.3778V18.429C168.369 19.1577 167.627 19.0938 165.838 19.3239C164.016 19.5604 162.028 19.9631 162.028 22.2131C162.028 24.1307 163.511 25.2301 165.377 25.2301ZM165.607 23.875C164.406 23.875 163.536 23.3381 163.536 22.2898C163.536 21.1392 164.585 20.7812 165.761 20.6278C166.4 20.5511 168.113 20.3722 168.369 20.0653V21.446C168.369 22.6733 167.397 23.875 165.607 23.875ZM176.901 15.1818H174.804V12.8295H173.295V15.1818H171.812V16.4602H173.295V22.5966C173.295 24.3097 174.676 25.1278 175.955 25.1278C176.517 25.1278 176.875 25.0256 177.08 24.9489L176.773 23.5938C176.645 23.6193 176.44 23.6705 176.108 23.6705C175.443 23.6705 174.804 23.4659 174.804 22.1875V16.4602H176.901V15.1818ZM179.17 25H180.678V15.1818H179.17V25ZM179.937 13.5455C180.525 13.5455 181.011 13.0852 181.011 12.5227C181.011 11.9602 180.525 11.5 179.937 11.5C179.349 11.5 178.863 11.9602 178.863 12.5227C178.863 13.0852 179.349 13.5455 179.937 13.5455ZM187.43 25.2045C190.089 25.2045 191.879 23.1847 191.879 20.142C191.879 17.0739 190.089 15.054 187.43 15.054C184.771 15.054 182.981 17.0739 182.981 20.142C182.981 23.1847 184.771 25.2045 187.43 25.2045ZM187.43 23.8494C185.41 23.8494 184.49 22.1108 184.49 20.142C184.49 18.1733 185.41 16.4091 187.43 16.4091C189.45 16.4091 190.37 18.1733 190.37 20.142C190.37 22.1108 189.45 23.8494 187.43 23.8494ZM195.69 19.0938C195.69 17.3807 196.751 16.4091 198.196 16.4091C199.596 16.4091 200.446 17.3232 200.446 18.8636V25H201.954V18.7614C201.954 16.2557 200.618 15.054 198.63 15.054C197.147 15.054 196.227 15.7188 195.767 16.7159H195.639V15.1818H194.181V25H195.69V19.0938ZM211.665 17.3807C211.192 15.9872 210.131 15.054 208.188 15.054C206.117 15.054 204.583 16.2301 204.583 17.892C204.583 19.2472 205.388 20.1548 207.191 20.5767L208.827 20.9602C209.818 21.1903 210.285 21.6634 210.285 22.3409C210.285 23.1847 209.39 23.875 207.983 23.875C206.75 23.875 205.976 23.3445 205.708 22.2898L204.276 22.6477C204.628 24.3161 206.002 25.2045 208.009 25.2045C210.291 25.2045 211.844 23.9581 211.844 22.2642C211.844 20.8963 210.988 20.0334 209.236 19.6051L207.779 19.2472C206.616 18.9595 206.091 18.5696 206.091 17.8153C206.091 16.9716 206.986 16.358 208.188 16.358C209.505 16.358 210.048 17.0866 210.31 17.7642L211.665 17.3807ZM223.166 25.2045C225.825 25.2045 227.615 23.1847 227.615 20.142C227.615 17.0739 225.825 15.054 223.166 15.054C220.507 15.054 218.717 17.0739 218.717 20.142C218.717 23.1847 220.507 25.2045 223.166 25.2045ZM223.166 23.8494C221.146 23.8494 220.226 22.1108 220.226 20.142C220.226 18.1733 221.146 16.4091 223.166 16.4091C225.186 16.4091 226.107 18.1733 226.107 20.142C226.107 22.1108 225.186 23.8494 223.166 23.8494ZM229.918 25H231.426V18.7869C231.426 17.4574 232.475 16.4858 233.906 16.4858C234.309 16.4858 234.725 16.5625 234.827 16.5881V15.054C234.654 15.0412 234.258 15.0284 234.034 15.0284C232.858 15.0284 231.835 15.6932 231.477 16.6648H231.375V15.1818H229.918V25ZM241.678 25H243.186V18.8636C243.186 17.4254 244.234 16.4091 245.411 16.4091C246.555 16.4091 247.354 17.157 247.354 18.2756V25H248.888V18.608C248.888 17.3423 249.68 16.4091 251.061 16.4091C252.135 16.4091 253.055 16.978 253.055 18.429V25H254.564V18.429C254.564 16.1214 253.324 15.054 251.572 15.054C250.166 15.054 249.137 15.6996 248.632 16.7159H248.53C248.044 15.6676 247.188 15.054 245.896 15.054C244.618 15.054 243.672 15.6676 243.263 16.7159H243.135V15.1818H241.678V25ZM261.311 25.2045C263.97 25.2045 265.76 23.1847 265.76 20.142C265.76 17.0739 263.97 15.054 261.311 15.054C258.652 15.054 256.862 17.0739 256.862 20.142C256.862 23.1847 258.652 25.2045 261.311 25.2045ZM261.311 23.8494C259.291 23.8494 258.37 22.1108 258.37 20.142C258.37 18.1733 259.291 16.4091 261.311 16.4091C263.331 16.4091 264.251 18.1733 264.251 20.142C264.251 22.1108 263.331 23.8494 261.311 23.8494ZM268.062 25H269.571V18.7869C269.571 17.4574 270.619 16.4858 272.051 16.4858C272.454 16.4858 272.869 16.5625 272.971 16.5881V15.054C272.799 15.0412 272.403 15.0284 272.179 15.0284C271.003 15.0284 269.98 15.6932 269.622 16.6648H269.52V15.1818H268.062V25ZM278.577 25.2045C280.572 25.2045 282.029 24.2074 282.489 22.7244L281.032 22.3153C280.648 23.3381 279.76 23.8494 278.577 23.8494C276.807 23.8494 275.586 22.7053 275.515 20.6023H282.643V19.9631C282.643 16.3068 280.469 15.054 278.424 15.054C275.765 15.054 274.001 17.1506 274.001 20.1676C274.001 23.1847 275.739 25.2045 278.577 25.2045ZM275.515 19.2983C275.618 17.7706 276.698 16.4091 278.424 16.4091C280.06 16.4091 281.108 17.6364 281.108 19.2983H275.515Z" fill="white"/>
<path d="M74.844 155.909V169H76.327V159.054H76.4548L80.5457 169H81.9775L86.0684 159.054H86.1963V169H87.6792V155.909H85.7872L81.3383 166.776H81.1849L76.7361 155.909H74.844ZM93.5423 169.23C95.2554 169.23 96.1503 168.31 96.4571 167.67H96.5338V169H98.0423V162.531C98.0423 159.412 95.6645 159.054 94.4117 159.054C92.9287 159.054 91.2412 159.565 90.4742 161.355L91.906 161.866C92.2384 161.151 93.0246 160.384 94.4628 160.384C95.8499 160.384 96.5338 161.119 96.5338 162.378V162.429C96.5338 163.158 95.7923 163.094 94.0026 163.324C92.1808 163.56 90.1929 163.963 90.1929 166.213C90.1929 168.131 91.6759 169.23 93.5423 169.23ZM93.7725 167.875C92.5708 167.875 91.7014 167.338 91.7014 166.29C91.7014 165.139 92.7497 164.781 93.9259 164.628C94.5651 164.551 96.2781 164.372 96.5338 164.065V165.446C96.5338 166.673 95.5622 167.875 93.7725 167.875ZM100.796 169H102.304V165.325L103.359 164.347L107.034 169H108.952L104.497 163.375L108.645 159.182H106.779L102.483 163.554H102.304V155.909H100.796V169ZM114.299 169.205C116.293 169.205 117.751 168.207 118.211 166.724L116.753 166.315C116.37 167.338 115.481 167.849 114.299 167.849C112.528 167.849 111.307 166.705 111.237 164.602H118.364V163.963C118.364 160.307 116.191 159.054 114.146 159.054C111.486 159.054 109.722 161.151 109.722 164.168C109.722 167.185 111.461 169.205 114.299 169.205ZM111.237 163.298C111.339 161.771 112.42 160.409 114.146 160.409C115.782 160.409 116.83 161.636 116.83 163.298H111.237ZM131.909 164.986C131.909 166.827 130.503 167.67 129.378 167.67C128.125 167.67 127.23 166.75 127.23 165.318V159.182H125.722V165.42C125.722 167.926 127.051 169.128 128.892 169.128C130.375 169.128 131.347 168.335 131.807 167.338H131.909V169H133.418V159.182H131.909V164.986ZM136.18 172.682H137.689V167.491H137.817C138.149 168.028 138.788 169.205 140.68 169.205C143.135 169.205 144.848 167.236 144.848 164.116C144.848 161.023 143.135 159.054 140.655 159.054C138.737 159.054 138.149 160.23 137.817 160.741H137.638V159.182H136.18V172.682ZM137.663 164.091C137.663 161.892 138.635 160.409 140.476 160.409C142.394 160.409 143.34 162.02 143.34 164.091C143.34 166.188 142.368 167.849 140.476 167.849C138.661 167.849 137.663 166.315 137.663 164.091ZM149.399 167.21H147.763L147.686 167.926C147.501 169.658 147.136 171.384 146.97 172.196H148.121C148.428 171.327 149.08 169.358 149.297 167.901L149.399 167.21ZM165.285 159.182H163.649L160.938 167.006H160.836L158.126 159.182H156.49L160.12 169H161.654L165.285 159.182ZM167.276 169H168.785V159.182H167.276V169ZM168.043 157.545C168.631 157.545 169.117 157.085 169.117 156.523C169.117 155.96 168.631 155.5 168.043 155.5C167.455 155.5 166.969 155.96 166.969 156.523C166.969 157.085 167.455 157.545 168.043 157.545ZM178.502 161.381C178.029 159.987 176.968 159.054 175.025 159.054C172.954 159.054 171.42 160.23 171.42 161.892C171.42 163.247 172.225 164.155 174.028 164.577L175.664 164.96C176.655 165.19 177.122 165.663 177.122 166.341C177.122 167.185 176.227 167.875 174.82 167.875C173.587 167.875 172.813 167.344 172.545 166.29L171.113 166.648C171.465 168.316 172.839 169.205 174.846 169.205C177.128 169.205 178.681 167.958 178.681 166.264C178.681 164.896 177.825 164.033 176.073 163.605L174.616 163.247C173.453 162.96 172.928 162.57 172.928 161.815C172.928 160.972 173.823 160.358 175.025 160.358C176.342 160.358 176.885 161.087 177.147 161.764L178.502 161.381ZM183.841 169.23C185.554 169.23 186.449 168.31 186.756 167.67H186.833V169H188.341V162.531C188.341 159.412 185.963 159.054 184.71 159.054C183.228 159.054 181.54 159.565 180.773 161.355L182.205 161.866C182.537 161.151 183.323 160.384 184.762 160.384C186.149 160.384 186.833 161.119 186.833 162.378V162.429C186.833 163.158 186.091 163.094 184.301 163.324C182.48 163.56 180.492 163.963 180.492 166.213C180.492 168.131 181.975 169.23 183.841 169.23ZM184.071 167.875C182.87 167.875 182 167.338 182 166.29C182 165.139 183.049 164.781 184.225 164.628C184.864 164.551 186.577 164.372 186.833 164.065V165.446C186.833 166.673 185.861 167.875 184.071 167.875ZM195.058 172.886C197.41 172.886 199.302 171.812 199.302 169.281V159.182H197.845V160.741H197.691C197.359 160.23 196.745 159.054 194.828 159.054C192.347 159.054 190.634 161.023 190.634 164.04C190.634 167.108 192.424 168.847 194.802 168.847C196.72 168.847 197.333 167.722 197.666 167.185H197.793V169.179C197.793 170.815 196.643 171.557 195.058 171.557C193.274 171.557 192.648 170.617 192.245 170.074L191.043 170.918C191.657 171.947 192.865 172.886 195.058 172.886ZM195.006 167.491C193.114 167.491 192.143 166.06 192.143 164.014C192.143 162.02 193.089 160.409 195.006 160.409C196.847 160.409 197.819 161.892 197.819 164.014C197.819 166.188 196.822 167.491 195.006 167.491ZM206.18 169.205C208.174 169.205 209.631 168.207 210.092 166.724L208.634 166.315C208.251 167.338 207.362 167.849 206.18 167.849C204.409 167.849 203.188 166.705 203.118 164.602H210.245V163.963C210.245 160.307 208.072 159.054 206.026 159.054C203.367 159.054 201.603 161.151 201.603 164.168C201.603 167.185 203.342 169.205 206.18 169.205ZM203.118 163.298C203.22 161.771 204.301 160.409 206.026 160.409C207.663 160.409 208.711 161.636 208.711 163.298H203.118ZM214.79 167.21H213.153L213.077 167.926C212.891 169.658 212.527 171.384 212.361 172.196H213.511C213.818 171.327 214.47 169.358 214.688 167.901L214.79 167.21ZM224.156 163.094C224.156 161.381 225.249 160.409 226.738 160.409C228.157 160.409 229.014 161.304 229.014 162.864V169H230.522V162.761C230.522 160.237 229.18 159.054 227.173 159.054C225.626 159.054 224.744 159.7 224.284 160.716H224.156V155.909H222.647V169H224.156V163.094ZM236.171 169.23C237.884 169.23 238.779 168.31 239.086 167.67H239.163V169H240.671V162.531C240.671 159.412 238.293 159.054 237.041 159.054C235.558 159.054 233.87 159.565 233.103 161.355L234.535 161.866C234.867 161.151 235.653 160.384 237.092 160.384C238.479 160.384 239.163 161.119 239.163 162.378V162.429C239.163 163.158 238.421 163.094 236.631 163.324C234.81 163.56 232.822 163.963 232.822 166.213C232.822 168.131 234.305 169.23 236.171 169.23ZM236.401 167.875C235.2 167.875 234.33 167.338 234.33 166.29C234.33 165.139 235.379 164.781 236.555 164.628C237.194 164.551 238.907 164.372 239.163 164.065V165.446C239.163 166.673 238.191 167.875 236.401 167.875ZM243.425 169H244.933V159.182H243.425V169ZM244.192 157.545C244.78 157.545 245.266 157.085 245.266 156.523C245.266 155.96 244.78 155.5 244.192 155.5C243.604 155.5 243.118 155.96 243.118 156.523C243.118 157.085 243.604 157.545 244.192 157.545ZM247.696 169H249.205V162.787C249.205 161.457 250.253 160.486 251.685 160.486C252.087 160.486 252.503 160.562 252.605 160.588V159.054C252.433 159.041 252.036 159.028 251.813 159.028C250.636 159.028 249.614 159.693 249.256 160.665H249.153V159.182H247.696V169ZM261.348 161.381C260.875 159.987 259.814 159.054 257.871 159.054C255.8 159.054 254.266 160.23 254.266 161.892C254.266 163.247 255.071 164.155 256.873 164.577L258.51 164.96C259.501 165.19 259.967 165.663 259.967 166.341C259.967 167.185 259.072 167.875 257.666 167.875C256.432 167.875 255.659 167.344 255.391 166.29L253.959 166.648C254.31 168.316 255.685 169.205 257.692 169.205C259.974 169.205 261.527 167.958 261.527 166.264C261.527 164.896 260.67 164.033 258.919 163.605L257.462 163.247C256.298 162.96 255.774 162.57 255.774 161.815C255.774 160.972 256.669 160.358 257.871 160.358C259.187 160.358 259.731 161.087 259.993 161.764L261.348 161.381ZM268.068 159.182H265.971V156.83H264.462V159.182H262.979V160.46H264.462V166.597C264.462 168.31 265.843 169.128 267.122 169.128C267.684 169.128 268.042 169.026 268.247 168.949L267.94 167.594C267.812 167.619 267.607 167.67 267.275 167.67C266.61 167.67 265.971 167.466 265.971 166.188V160.46H268.068V159.182ZM271.308 172.682C272.67 172.682 273.629 171.96 274.198 170.432L278.378 159.207L276.729 159.182L274.019 167.006H273.916L271.206 159.182H269.57L273.2 169.051L272.919 169.818C272.369 171.314 271.692 171.455 270.592 171.173L270.209 172.503C270.362 172.58 270.797 172.682 271.308 172.682ZM281.882 155.909H280.374V169H281.882V155.909ZM288.762 169.205C290.756 169.205 292.214 168.207 292.674 166.724L291.216 166.315C290.833 167.338 289.944 167.849 288.762 167.849C286.991 167.849 285.77 166.705 285.7 164.602H292.827V163.963C292.827 160.307 290.654 159.054 288.608 159.054C285.949 159.054 284.185 161.151 284.185 164.168C284.185 167.185 285.924 169.205 288.762 169.205ZM285.7 163.298C285.802 161.771 286.883 160.409 288.608 160.409C290.245 160.409 291.293 161.636 291.293 163.298H285.7Z" fill="white"/>
<path d="M99.7917 97.179C102.285 97.179 104.113 95.3381 104.113 92.8324C104.113 90.2947 102.349 88.4347 99.9451 88.4347C99.063 88.4347 98.2065 88.7479 97.6696 89.1761H97.5929L98.0531 85.3153H103.525V83.9091H96.7235L95.9309 90.3523L97.4139 90.5312C97.9572 90.1413 98.8841 89.8601 99.6895 89.8665C101.358 89.8793 102.579 91.1449 102.579 92.858C102.579 94.5391 101.403 95.7727 99.7917 95.7727C98.4494 95.7727 97.3819 94.9098 97.2605 93.7273H95.7264C95.8223 95.7216 97.5417 97.179 99.7917 97.179ZM110.922 97.179C113.811 97.179 115.473 94.7308 115.473 90.4545C115.473 86.2102 113.786 83.7301 110.922 83.7301C108.058 83.7301 106.371 86.2102 106.371 90.4545C106.371 94.7308 108.033 97.179 110.922 97.179ZM110.922 95.7727C109.017 95.7727 107.905 93.8615 107.905 90.4545C107.905 87.054 109.03 85.1108 110.922 85.1108C112.814 85.1108 113.939 87.054 113.939 90.4545C113.939 93.8615 112.827 95.7727 110.922 95.7727ZM122.99 100.682H124.499V95.4915H124.626C124.959 96.0284 125.598 97.2045 127.49 97.2045C129.945 97.2045 131.658 95.2358 131.658 92.1165C131.658 89.0227 129.945 87.054 127.464 87.054C125.547 87.054 124.959 88.2301 124.626 88.7415H124.447V87.1818H122.99V100.682ZM124.473 92.0909C124.473 89.892 125.445 88.4091 127.286 88.4091C129.203 88.4091 130.149 90.0199 130.149 92.0909C130.149 94.1875 129.178 95.8494 127.286 95.8494C125.47 95.8494 124.473 94.3153 124.473 92.0909ZM135.467 91.0938C135.467 89.3807 136.56 88.4091 138.05 88.4091C139.469 88.4091 140.325 89.304 140.325 90.8636V97H141.834V90.7614C141.834 88.2365 140.491 87.054 138.484 87.054C136.938 87.054 136.055 87.6996 135.595 88.7159H135.467V83.9091H133.959V97H135.467V91.0938ZM148.582 97.2045C151.241 97.2045 153.031 95.1847 153.031 92.142C153.031 89.0739 151.241 87.054 148.582 87.054C145.923 87.054 144.133 89.0739 144.133 92.142C144.133 95.1847 145.923 97.2045 148.582 97.2045ZM148.582 95.8494C146.562 95.8494 145.642 94.1108 145.642 92.142C145.642 90.1733 146.562 88.4091 148.582 88.4091C150.602 88.4091 151.523 90.1733 151.523 92.142C151.523 94.1108 150.602 95.8494 148.582 95.8494ZM159.604 87.1818H157.507V84.8295H155.999V87.1818H154.516V88.4602H155.999V94.5966C155.999 96.3097 157.379 97.1278 158.658 97.1278C159.22 97.1278 159.578 97.0256 159.783 96.9489L159.476 95.5938C159.348 95.6193 159.143 95.6705 158.811 95.6705C158.146 95.6705 157.507 95.4659 157.507 94.1875V88.4602H159.604V87.1818ZM165.756 97.2045C168.415 97.2045 170.205 95.1847 170.205 92.142C170.205 89.0739 168.415 87.054 165.756 87.054C163.097 87.054 161.307 89.0739 161.307 92.142C161.307 95.1847 163.097 97.2045 165.756 97.2045ZM165.756 95.8494C163.736 95.8494 162.816 94.1108 162.816 92.142C162.816 90.1733 163.736 88.4091 165.756 88.4091C167.776 88.4091 168.696 90.1733 168.696 92.142C168.696 94.1108 167.776 95.8494 165.756 95.8494ZM179.462 89.3807C178.989 87.9872 177.928 87.054 175.985 87.054C173.914 87.054 172.38 88.2301 172.38 89.892C172.38 91.2472 173.185 92.1548 174.988 92.5767L176.624 92.9602C177.615 93.1903 178.081 93.6634 178.081 94.3409C178.081 95.1847 177.187 95.875 175.78 95.875C174.547 95.875 173.773 95.3445 173.505 94.2898L172.073 94.6477C172.425 96.3161 173.799 97.2045 175.806 97.2045C178.088 97.2045 179.641 95.9581 179.641 94.2642C179.641 92.8963 178.785 92.0334 177.033 91.6051L175.576 91.2472C174.412 90.9595 173.888 90.5696 173.888 89.8153C173.888 88.9716 174.783 88.358 175.985 88.358C177.302 88.358 177.845 89.0866 178.107 89.7642L179.462 89.3807ZM186.974 97H188.483V87.1818H186.974V97ZM187.741 85.5455C188.33 85.5455 188.815 85.0852 188.815 84.5227C188.815 83.9602 188.33 83.5 187.741 83.5C187.153 83.5 186.668 83.9602 186.668 84.5227C186.668 85.0852 187.153 85.5455 187.741 85.5455ZM192.754 91.0938C192.754 89.3807 193.816 88.4091 195.26 88.4091C196.66 88.4091 197.51 89.3232 197.51 90.8636V97H199.019V90.7614C199.019 88.2557 197.683 87.054 195.695 87.054C194.212 87.054 193.291 87.7188 192.831 88.7159H192.703V87.1818H191.246V97H192.754V91.0938ZM206.838 97H208.346V90.7869C208.346 89.4574 209.395 88.4858 210.826 88.4858C211.229 88.4858 211.645 88.5625 211.747 88.5881V87.054C211.574 87.0412 211.178 87.0284 210.954 87.0284C209.778 87.0284 208.755 87.6932 208.397 88.6648H208.295V87.1818H206.838V97ZM217.353 97.2045C219.347 97.2045 220.804 96.2074 221.265 94.7244L219.807 94.3153C219.424 95.3381 218.535 95.8494 217.353 95.8494C215.582 95.8494 214.361 94.7053 214.291 92.6023H221.418V91.9631C221.418 88.3068 219.245 87.054 217.199 87.054C214.54 87.054 212.776 89.1506 212.776 92.1676C212.776 95.1847 214.515 97.2045 217.353 97.2045ZM214.291 91.2983C214.393 89.7706 215.473 88.4091 217.199 88.4091C218.836 88.4091 219.884 89.6364 219.884 91.2983H214.291ZM227.983 87.1818H225.886V84.8295H224.377V87.1818H222.895V88.4602H224.377V94.5966C224.377 96.3097 225.758 97.1278 227.037 97.1278C227.599 97.1278 227.957 97.0256 228.162 96.9489L227.855 95.5938C227.727 95.6193 227.522 95.6705 227.19 95.6705C226.525 95.6705 225.886 95.4659 225.886 94.1875V88.4602H227.983V87.1818ZM234.135 97.2045C236.794 97.2045 238.584 95.1847 238.584 92.142C238.584 89.0739 236.794 87.054 234.135 87.054C231.476 87.054 229.686 89.0739 229.686 92.142C229.686 95.1847 231.476 97.2045 234.135 97.2045ZM234.135 95.8494C232.115 95.8494 231.195 94.1108 231.195 92.142C231.195 90.1733 232.115 88.4091 234.135 88.4091C236.155 88.4091 237.075 90.1733 237.075 92.142C237.075 94.1108 236.155 95.8494 234.135 95.8494ZM247.074 92.9858C247.074 94.8267 245.668 95.6705 244.543 95.6705C243.29 95.6705 242.395 94.75 242.395 93.3182V87.1818H240.887V93.4205C240.887 95.9261 242.216 97.1278 244.057 97.1278C245.54 97.1278 246.512 96.3352 246.972 95.3381H247.074V97H248.583V87.1818H247.074V92.9858ZM255.334 97.2045C257.507 97.2045 258.939 95.875 259.195 94.1364H257.686C257.405 95.2102 256.51 95.8494 255.334 95.8494C253.544 95.8494 252.394 94.3665 252.394 92.0909C252.394 89.8665 253.57 88.4091 255.334 88.4091C256.664 88.4091 257.456 89.2273 257.686 90.1222H259.195C258.939 88.2812 257.38 87.054 255.309 87.054C252.65 87.054 250.885 89.1506 250.885 92.142C250.885 95.0824 252.573 97.2045 255.334 97.2045ZM262.909 91.0938C262.909 89.3807 264.002 88.4091 265.491 88.4091C266.91 88.4091 267.767 89.304 267.767 90.8636V97H269.275V90.7614C269.275 88.2365 267.933 87.054 265.926 87.054C264.379 87.054 263.497 87.6996 263.037 88.7159H262.909V83.9091H261.4V97H262.909V91.0938Z" fill="white"/>
</svg>
