<svg width="365" height="180" viewBox="0 0 365 180" fill="none" xmlns="http://www.w3.org/2000/svg">
<path d="M106.993 47.9091H105.407L102.135 50.0824V51.6932L105.331 49.571H105.407V61H106.993V47.9091ZM110.757 61H119.016V59.5938H112.931V59.4915L115.871 56.3466C118.121 53.9368 118.786 52.8118 118.786 51.3608C118.786 49.3409 117.15 47.7301 114.848 47.7301C112.554 47.7301 110.809 49.2898 110.809 51.5909H112.317C112.317 50.1016 113.282 49.1108 114.797 49.1108C116.216 49.1108 117.303 49.9801 117.303 51.3608C117.303 52.5689 116.593 53.4638 115.078 55.1193L110.757 59.8494V61ZM125.926 61.179C128.815 61.179 130.477 58.7308 130.477 54.4545C130.477 50.2102 128.789 47.7301 125.926 47.7301C123.062 47.7301 121.375 50.2102 121.375 54.4545C121.375 58.7308 123.037 61.179 125.926 61.179ZM125.926 59.7727C124.021 59.7727 122.909 57.8615 122.909 54.4545C122.909 51.054 124.034 49.1108 125.926 49.1108C127.818 49.1108 128.943 51.054 128.943 54.4545C128.943 57.8615 127.831 59.7727 125.926 59.7727ZM137.994 64.6818H139.502V59.4915H139.63C139.963 60.0284 140.602 61.2045 142.494 61.2045C144.949 61.2045 146.662 59.2358 146.662 56.1165C146.662 53.0227 144.949 51.054 142.468 51.054C140.551 51.054 139.963 52.2301 139.63 52.7415H139.451V51.1818H137.994V64.6818ZM139.477 56.0909C139.477 53.892 140.449 52.4091 142.289 52.4091C144.207 52.4091 145.153 54.0199 145.153 56.0909C145.153 58.1875 144.181 59.8494 142.289 59.8494C140.474 59.8494 139.477 58.3153 139.477 56.0909ZM150.471 55.0938C150.471 53.3807 151.564 52.4091 153.054 52.4091C154.473 52.4091 155.329 53.304 155.329 54.8636V61H156.838V54.7614C156.838 52.2365 155.495 51.054 153.488 51.054C151.941 51.054 151.059 51.6996 150.599 52.7159H150.471V47.9091H148.963V61H150.471V55.0938ZM163.586 61.2045C166.245 61.2045 168.035 59.1847 168.035 56.142C168.035 53.0739 166.245 51.054 163.586 51.054C160.927 51.054 159.137 53.0739 159.137 56.142C159.137 59.1847 160.927 61.2045 163.586 61.2045ZM163.586 59.8494C161.566 59.8494 160.646 58.1108 160.646 56.142C160.646 54.1733 161.566 52.4091 163.586 52.4091C165.606 52.4091 166.526 54.1733 166.526 56.142C166.526 58.1108 165.606 59.8494 163.586 59.8494ZM174.608 51.1818H172.511V48.8295H171.002V51.1818H169.52V52.4602H171.002V58.5966C171.002 60.3097 172.383 61.1278 173.662 61.1278C174.224 61.1278 174.582 61.0256 174.787 60.9489L174.48 59.5938C174.352 59.6193 174.147 59.6705 173.815 59.6705C173.15 59.6705 172.511 59.4659 172.511 58.1875V52.4602H174.608V51.1818ZM180.76 61.2045C183.419 61.2045 185.209 59.1847 185.209 56.142C185.209 53.0739 183.419 51.054 180.76 51.054C178.101 51.054 176.311 53.0739 176.311 56.142C176.311 59.1847 178.101 61.2045 180.76 61.2045ZM180.76 59.8494C178.74 59.8494 177.82 58.1108 177.82 56.142C177.82 54.1733 178.74 52.4091 180.76 52.4091C182.78 52.4091 183.7 54.1733 183.7 56.142C183.7 58.1108 182.78 59.8494 180.76 59.8494ZM194.466 53.3807C193.993 51.9872 192.932 51.054 190.989 51.054C188.918 51.054 187.384 52.2301 187.384 53.892C187.384 55.2472 188.189 56.1548 189.992 56.5767L191.628 56.9602C192.619 57.1903 193.085 57.6634 193.085 58.3409C193.085 59.1847 192.191 59.875 190.784 59.875C189.551 59.875 188.777 59.3445 188.509 58.2898L187.077 58.6477C187.428 60.3161 188.803 61.2045 190.81 61.2045C193.092 61.2045 194.645 59.9581 194.645 58.2642C194.645 56.8963 193.789 56.0334 192.037 55.6051L190.58 55.2472C189.416 54.9595 188.892 54.5696 188.892 53.8153C188.892 52.9716 189.787 52.358 190.989 52.358C192.306 52.358 192.849 53.0866 193.111 53.7642L194.466 53.3807ZM201.978 61H203.487V51.1818H201.978V61ZM202.745 49.5455C203.333 49.5455 203.819 49.0852 203.819 48.5227C203.819 47.9602 203.333 47.5 202.745 47.5C202.157 47.5 201.672 47.9602 201.672 48.5227C201.672 49.0852 202.157 49.5455 202.745 49.5455ZM207.758 55.0938C207.758 53.3807 208.819 52.4091 210.264 52.4091C211.664 52.4091 212.514 53.3232 212.514 54.8636V61H214.023V54.7614C214.023 52.2557 212.687 51.054 210.699 51.054C209.216 51.054 208.295 51.7188 207.835 52.7159H207.707V51.1818H206.25V61H207.758V55.0938ZM225.83 61.2045C228.004 61.2045 229.435 59.875 229.691 58.1364H228.183C227.901 59.2102 227.006 59.8494 225.83 59.8494C224.04 59.8494 222.89 58.3665 222.89 56.0909C222.89 53.8665 224.066 52.4091 225.83 52.4091C227.16 52.4091 227.952 53.2273 228.183 54.1222H229.691C229.435 52.2812 227.876 51.054 225.805 51.054C223.146 51.054 221.381 53.1506 221.381 56.142C221.381 59.0824 223.069 61.2045 225.83 61.2045ZM235.885 61.2045C238.544 61.2045 240.334 59.1847 240.334 56.142C240.334 53.0739 238.544 51.054 235.885 51.054C233.226 51.054 231.436 53.0739 231.436 56.142C231.436 59.1847 233.226 61.2045 235.885 61.2045ZM235.885 59.8494C233.865 59.8494 232.945 58.1108 232.945 56.142C232.945 54.1733 233.865 52.4091 235.885 52.4091C237.905 52.4091 238.825 54.1733 238.825 56.142C238.825 58.1108 237.905 59.8494 235.885 59.8494ZM244.145 47.9091H242.637V61H244.145V47.9091ZM250.897 61.2045C253.556 61.2045 255.346 59.1847 255.346 56.142C255.346 53.0739 253.556 51.054 250.897 51.054C248.238 51.054 246.448 53.0739 246.448 56.142C246.448 59.1847 248.238 61.2045 250.897 61.2045ZM250.897 59.8494C248.877 59.8494 247.956 58.1108 247.956 56.142C247.956 54.1733 248.877 52.4091 250.897 52.4091C252.917 52.4091 253.837 54.1733 253.837 56.142C253.837 58.1108 252.917 59.8494 250.897 59.8494ZM257.648 61H259.157V54.7869C259.157 53.4574 260.205 52.4858 261.637 52.4858C262.04 52.4858 262.455 52.5625 262.557 52.5881V51.054C262.385 51.0412 261.988 51.0284 261.765 51.0284C260.589 51.0284 259.566 51.6932 259.208 52.6648H259.106V51.1818H257.648V61Z" fill="white"/>
<path d="M92.9426 133H94.5279V127.886H97.3915C97.5066 127.886 97.6152 127.886 97.7239 127.88L100.485 133H102.326L99.3667 127.592C101.035 127.023 101.815 125.662 101.815 123.923C101.815 121.609 100.434 119.909 97.3659 119.909H92.9426V133ZM94.5279 126.455V121.315H97.3148C99.437 121.315 100.255 122.351 100.255 123.923C100.255 125.496 99.437 126.455 97.3404 126.455H94.5279ZM108.263 133.205C110.257 133.205 111.714 132.207 112.175 130.724L110.717 130.315C110.334 131.338 109.445 131.849 108.263 131.849C106.492 131.849 105.271 130.705 105.201 128.602H112.328V127.963C112.328 124.307 110.155 123.054 108.109 123.054C105.45 123.054 103.686 125.151 103.686 128.168C103.686 131.185 105.425 133.205 108.263 133.205ZM105.201 127.298C105.303 125.771 106.384 124.409 108.109 124.409C109.746 124.409 110.794 125.636 110.794 127.298H105.201ZM117.512 133.23C119.225 133.23 120.12 132.31 120.427 131.67H120.504V133H122.012V126.531C122.012 123.412 119.634 123.054 118.381 123.054C116.898 123.054 115.211 123.565 114.444 125.355L115.876 125.866C116.208 125.151 116.994 124.384 118.433 124.384C119.82 124.384 120.504 125.119 120.504 126.378V126.429C120.504 127.158 119.762 127.094 117.972 127.324C116.151 127.56 114.163 127.963 114.163 130.213C114.163 132.131 115.646 133.23 117.512 133.23ZM117.742 131.875C116.54 131.875 115.671 131.338 115.671 130.29C115.671 129.139 116.719 128.781 117.896 128.628C118.535 128.551 120.248 128.372 120.504 128.065V129.446C120.504 130.673 119.532 131.875 117.742 131.875ZM128.473 133.205C130.365 133.205 131.004 132.028 131.336 131.491H131.515V133H132.973V119.909H131.464V124.741H131.336C131.004 124.23 130.416 123.054 128.498 123.054C126.018 123.054 124.305 125.023 124.305 128.116C124.305 131.236 126.018 133.205 128.473 133.205ZM128.677 131.849C126.785 131.849 125.814 130.188 125.814 128.091C125.814 126.02 126.76 124.409 128.677 124.409C130.518 124.409 131.49 125.892 131.49 128.091C131.49 130.315 130.493 131.849 128.677 131.849ZM135.945 133H137.454V123.182H135.945V133ZM136.712 121.545C137.3 121.545 137.786 121.085 137.786 120.523C137.786 119.96 137.3 119.5 136.712 119.5C136.124 119.5 135.638 119.96 135.638 120.523C135.638 121.085 136.124 121.545 136.712 121.545ZM141.725 127.094C141.725 125.381 142.786 124.409 144.231 124.409C145.631 124.409 146.481 125.323 146.481 126.864V133H147.989V126.761C147.989 124.256 146.653 123.054 144.665 123.054C143.183 123.054 142.262 123.719 141.802 124.716H141.674V123.182H140.217V133H141.725V127.094ZM154.862 133.205C156.857 133.205 158.314 132.207 158.774 130.724L157.317 130.315C156.933 131.338 156.045 131.849 154.862 131.849C153.092 131.849 151.871 130.705 151.801 128.602H158.928V127.963C158.928 124.307 156.754 123.054 154.709 123.054C152.05 123.054 150.286 125.151 150.286 128.168C150.286 131.185 152.024 133.205 154.862 133.205ZM151.801 127.298C151.903 125.771 152.983 124.409 154.709 124.409C156.345 124.409 157.394 125.636 157.394 127.298H151.801ZM168.177 125.381C167.704 123.987 166.643 123.054 164.7 123.054C162.629 123.054 161.095 124.23 161.095 125.892C161.095 127.247 161.9 128.155 163.703 128.577L165.339 128.96C166.33 129.19 166.796 129.663 166.796 130.341C166.796 131.185 165.901 131.875 164.495 131.875C163.262 131.875 162.488 131.344 162.22 130.29L160.788 130.648C161.139 132.316 162.514 133.205 164.521 133.205C166.803 133.205 168.356 131.958 168.356 130.264C168.356 128.896 167.499 128.033 165.748 127.605L164.291 127.247C163.127 126.96 162.603 126.57 162.603 125.815C162.603 124.972 163.498 124.358 164.7 124.358C166.017 124.358 166.56 125.087 166.822 125.764L168.177 125.381ZM177.581 125.381C177.108 123.987 176.047 123.054 174.104 123.054C172.033 123.054 170.499 124.23 170.499 125.892C170.499 127.247 171.304 128.155 173.107 128.577L174.743 128.96C175.734 129.19 176.201 129.663 176.201 130.341C176.201 131.185 175.306 131.875 173.9 131.875C172.666 131.875 171.892 131.344 171.624 130.29L170.192 130.648C170.544 132.316 171.918 133.205 173.925 133.205C176.207 133.205 177.76 131.958 177.76 130.264C177.76 128.896 176.904 128.033 175.152 127.605L173.695 127.247C172.532 126.96 172.007 126.57 172.007 125.815C172.007 124.972 172.902 124.358 174.104 124.358C175.421 124.358 175.964 125.087 176.226 125.764L177.581 125.381ZM185.068 133H193.327V131.594H187.241V131.491L190.182 128.347C192.432 125.937 193.096 124.812 193.096 123.361C193.096 121.341 191.46 119.73 189.159 119.73C186.864 119.73 185.119 121.29 185.119 123.591H186.628C186.628 122.102 187.593 121.111 189.108 121.111C190.527 121.111 191.613 121.98 191.613 123.361C191.613 124.569 190.904 125.464 189.389 127.119L185.068 131.849V133ZM201.617 125.751H195.89V127.158H201.617V125.751ZM208.458 133.179C210.996 133.179 212.881 131.587 212.881 129.446C212.881 127.784 211.897 126.576 210.248 126.301V126.199C211.571 125.796 212.396 124.71 212.396 123.233C212.396 121.379 210.932 119.73 208.509 119.73C206.246 119.73 204.367 121.124 204.29 123.182H205.825C205.882 121.878 207.122 121.111 208.484 121.111C209.928 121.111 210.862 121.987 210.862 123.31C210.862 124.69 209.781 125.585 208.228 125.585H207.18V126.991H208.228C210.216 126.991 211.322 128.001 211.322 129.446C211.322 130.833 210.114 131.773 208.433 131.773C206.918 131.773 205.716 130.993 205.62 129.727H204.009C204.105 131.786 205.92 133.179 208.458 133.179ZM222.808 133H224.291L226.439 125.457H226.592L228.74 133H230.223L233.214 123.182H231.629L229.507 130.673H229.405L227.334 123.182H225.723L223.626 130.699H223.524L221.402 123.182H219.817L222.808 133ZM238.991 133.205C240.986 133.205 242.443 132.207 242.903 130.724L241.446 130.315C241.062 131.338 240.174 131.849 238.991 131.849C237.221 131.849 236 130.705 235.93 128.602H243.057V127.963C243.057 124.307 240.883 123.054 238.838 123.054C236.179 123.054 234.415 125.151 234.415 128.168C234.415 131.185 236.153 133.205 238.991 133.205ZM235.93 127.298C236.032 125.771 237.112 124.409 238.838 124.409C240.474 124.409 241.523 125.636 241.523 127.298H235.93ZM249.468 133.205C251.462 133.205 252.92 132.207 253.38 130.724L251.922 130.315C251.539 131.338 250.65 131.849 249.468 131.849C247.697 131.849 246.476 130.705 246.406 128.602H253.533V127.963C253.533 124.307 251.36 123.054 249.314 123.054C246.655 123.054 244.891 125.151 244.891 128.168C244.891 131.185 246.63 133.205 249.468 133.205ZM246.406 127.298C246.508 125.771 247.589 124.409 249.314 124.409C250.951 124.409 251.999 125.636 251.999 127.298H246.406ZM255.828 133H257.336V129.325L258.391 128.347L262.067 133H263.984L259.529 127.375L263.677 123.182H261.811L257.515 127.554H257.336V119.909H255.828V133ZM272.574 125.381C272.1 123.987 271.039 123.054 269.096 123.054C267.025 123.054 265.491 124.23 265.491 125.892C265.491 127.247 266.297 128.155 268.099 128.577L269.735 128.96C270.726 129.19 271.193 129.663 271.193 130.341C271.193 131.185 270.298 131.875 268.892 131.875C267.658 131.875 266.885 131.344 266.616 130.29L265.184 130.648C265.536 132.316 266.91 133.205 268.917 133.205C271.199 133.205 272.752 131.958 272.752 130.264C272.752 128.896 271.896 128.033 270.145 127.605L268.687 127.247C267.524 126.96 267 126.57 267 125.815C267 124.972 267.895 124.358 269.096 124.358C270.413 124.358 270.956 125.087 271.218 125.764L272.574 125.381Z" fill="white"/>
<path d="M141.097 18.4545C141.097 14.3125 138.668 11.7301 135.318 11.7301C131.969 11.7301 129.54 14.3125 129.54 18.4545C129.54 22.5966 131.969 25.179 135.318 25.179C138.668 25.179 141.097 22.5966 141.097 18.4545ZM139.562 18.4545C139.562 21.8551 137.696 23.696 135.318 23.696C132.94 23.696 131.074 21.8551 131.074 18.4545C131.074 15.054 132.94 13.2131 135.318 13.2131C137.696 13.2131 139.562 15.054 139.562 18.4545ZM145.066 19.0938C145.066 17.3807 146.127 16.4091 147.572 16.4091C148.972 16.4091 149.822 17.3232 149.822 18.8636V25H151.33V18.7614C151.33 16.2557 149.994 15.054 148.006 15.054C146.523 15.054 145.603 15.7188 145.143 16.7159H145.015V15.1818H143.557V25H145.066V19.0938ZM158.203 25.2045C160.198 25.2045 161.655 24.2074 162.115 22.7244L160.658 22.3153C160.274 23.3381 159.386 23.8494 158.203 23.8494C156.433 23.8494 155.212 22.7053 155.141 20.6023H162.269V19.9631C162.269 16.3068 160.095 15.054 158.05 15.054C155.391 15.054 153.627 17.1506 153.627 20.1676C153.627 23.1847 155.365 25.2045 158.203 25.2045ZM155.141 19.2983C155.244 17.7706 156.324 16.4091 158.05 16.4091C159.686 16.4091 160.734 17.6364 160.734 19.2983H155.141ZM171.134 11.9091H169.626V25H171.134V11.9091ZM177.886 25.2045C180.545 25.2045 182.335 23.1847 182.335 20.142C182.335 17.0739 180.545 15.054 177.886 15.054C175.227 15.054 173.437 17.0739 173.437 20.142C173.437 23.1847 175.227 25.2045 177.886 25.2045ZM177.886 23.8494C175.866 23.8494 174.946 22.1108 174.946 20.142C174.946 18.1733 175.866 16.4091 177.886 16.4091C179.906 16.4091 180.826 18.1733 180.826 20.142C180.826 22.1108 179.906 23.8494 177.886 23.8494ZM188.626 25.2045C190.799 25.2045 192.231 23.875 192.487 22.1364H190.978C190.697 23.2102 189.802 23.8494 188.626 23.8494C186.836 23.8494 185.686 22.3665 185.686 20.0909C185.686 17.8665 186.862 16.4091 188.626 16.4091C189.956 16.4091 190.748 17.2273 190.978 18.1222H192.487C192.231 16.2812 190.672 15.054 188.601 15.054C185.941 15.054 184.177 17.1506 184.177 20.142C184.177 23.0824 185.865 25.2045 188.626 25.2045ZM197.581 25.2301C199.294 25.2301 200.189 24.3097 200.496 23.6705H200.573V25H202.081V18.5312C202.081 15.4119 199.704 15.054 198.451 15.054C196.968 15.054 195.28 15.5653 194.513 17.3551L195.945 17.8665C196.277 17.1506 197.064 16.3835 198.502 16.3835C199.889 16.3835 200.573 17.1186 200.573 18.3778V18.429C200.573 19.1577 199.831 19.0938 198.042 19.3239C196.22 19.5604 194.232 19.9631 194.232 22.2131C194.232 24.1307 195.715 25.2301 197.581 25.2301ZM197.812 23.875C196.61 23.875 195.741 23.3381 195.741 22.2898C195.741 21.1392 196.789 20.7812 197.965 20.6278C198.604 20.5511 200.317 20.3722 200.573 20.0653V21.446C200.573 22.6733 199.601 23.875 197.812 23.875ZM209.105 15.1818H207.008V12.8295H205.5V15.1818H204.017V16.4602H205.5V22.5966C205.5 24.3097 206.88 25.1278 208.159 25.1278C208.721 25.1278 209.079 25.0256 209.284 24.9489L208.977 23.5938C208.849 23.6193 208.644 23.6705 208.312 23.6705C207.647 23.6705 207.008 23.4659 207.008 22.1875V16.4602H209.105V15.1818ZM211.374 25H212.882V15.1818H211.374V25ZM212.141 13.5455C212.729 13.5455 213.215 13.0852 213.215 12.5227C213.215 11.9602 212.729 11.5 212.141 11.5C211.553 11.5 211.067 11.9602 211.067 12.5227C211.067 13.0852 211.553 13.5455 212.141 13.5455ZM219.634 25.2045C222.293 25.2045 224.083 23.1847 224.083 20.142C224.083 17.0739 222.293 15.054 219.634 15.054C216.975 15.054 215.185 17.0739 215.185 20.142C215.185 23.1847 216.975 25.2045 219.634 25.2045ZM219.634 23.8494C217.614 23.8494 216.694 22.1108 216.694 20.142C216.694 18.1733 217.614 16.4091 219.634 16.4091C221.654 16.4091 222.574 18.1733 222.574 20.142C222.574 22.1108 221.654 23.8494 219.634 23.8494ZM227.894 19.0938C227.894 17.3807 228.955 16.4091 230.4 16.4091C231.8 16.4091 232.65 17.3232 232.65 18.8636V25H234.158V18.7614C234.158 16.2557 232.822 15.054 230.834 15.054C229.351 15.054 228.431 15.7188 227.971 16.7159H227.843V15.1818H226.386V25H227.894V19.0938Z" fill="white"/>
<path d="M114.635 155.909V169H116.118V159.054H116.246L120.337 169H121.769L125.859 159.054H125.987V169H127.47V155.909H125.578L121.129 166.776H120.976L116.527 155.909H114.635ZM133.333 169.23C135.046 169.23 135.941 168.31 136.248 167.67H136.325V169H137.833V162.531C137.833 159.412 135.456 159.054 134.203 159.054C132.72 159.054 131.032 159.565 130.265 161.355L131.697 161.866C132.029 161.151 132.816 160.384 134.254 160.384C135.641 160.384 136.325 161.119 136.325 162.378V162.429C136.325 163.158 135.583 163.094 133.794 163.324C131.972 163.56 129.984 163.963 129.984 166.213C129.984 168.131 131.467 169.23 133.333 169.23ZM133.563 167.875C132.362 167.875 131.492 167.338 131.492 166.29C131.492 165.139 132.541 164.781 133.717 164.628C134.356 164.551 136.069 164.372 136.325 164.065V165.446C136.325 166.673 135.353 167.875 133.563 167.875ZM140.587 169H142.095V165.325L143.15 164.347L146.825 169H148.743L144.288 163.375L148.436 159.182H146.57L142.274 163.554H142.095V155.909H140.587V169ZM154.09 169.205C156.084 169.205 157.542 168.207 158.002 166.724L156.544 166.315C156.161 167.338 155.272 167.849 154.09 167.849C152.319 167.849 151.098 166.705 151.028 164.602H158.155V163.963C158.155 160.307 155.982 159.054 153.937 159.054C151.277 159.054 149.513 161.151 149.513 164.168C149.513 167.185 151.252 169.205 154.09 169.205ZM151.028 163.298C151.13 161.771 152.211 160.409 153.937 160.409C155.573 160.409 156.621 161.636 156.621 163.298H151.028ZM171.7 164.986C171.7 166.827 170.294 167.67 169.169 167.67C167.916 167.67 167.021 166.75 167.021 165.318V159.182H165.513V165.42C165.513 167.926 166.842 169.128 168.683 169.128C170.166 169.128 171.138 168.335 171.598 167.338H171.7V169H173.209V159.182H171.7V164.986ZM175.972 172.682H177.48V167.491H177.608C177.94 168.028 178.579 169.205 180.472 169.205C182.926 169.205 184.639 167.236 184.639 164.116C184.639 161.023 182.926 159.054 180.446 159.054C178.528 159.054 177.94 160.23 177.608 160.741H177.429V159.182H175.972V172.682ZM177.454 164.091C177.454 161.892 178.426 160.409 180.267 160.409C182.185 160.409 183.131 162.02 183.131 164.091C183.131 166.188 182.159 167.849 180.267 167.849C178.452 167.849 177.454 166.315 177.454 164.091ZM189.19 167.21H187.554L187.477 167.926C187.292 169.658 186.927 171.384 186.761 172.196H187.912C188.219 171.327 188.871 169.358 189.088 167.901L189.19 167.21ZM205.076 159.182H203.44L200.729 167.006H200.627L197.917 159.182H196.281L199.911 169H201.445L205.076 159.182ZM207.067 169H208.576V159.182H207.067V169ZM207.834 157.545C208.422 157.545 208.908 157.085 208.908 156.523C208.908 155.96 208.422 155.5 207.834 155.5C207.246 155.5 206.76 155.96 206.76 156.523C206.76 157.085 207.246 157.545 207.834 157.545ZM218.293 161.381C217.82 159.987 216.759 159.054 214.816 159.054C212.745 159.054 211.211 160.23 211.211 161.892C211.211 163.247 212.016 164.155 213.819 164.577L215.455 164.96C216.446 165.19 216.913 165.663 216.913 166.341C216.913 167.185 216.018 167.875 214.611 167.875C213.378 167.875 212.604 167.344 212.336 166.29L210.904 166.648C211.256 168.316 212.63 169.205 214.637 169.205C216.919 169.205 218.472 167.958 218.472 166.264C218.472 164.896 217.616 164.033 215.864 163.605L214.407 163.247C213.244 162.96 212.719 162.57 212.719 161.815C212.719 160.972 213.614 160.358 214.816 160.358C216.133 160.358 216.676 161.087 216.938 161.764L218.293 161.381ZM223.632 169.23C225.345 169.23 226.24 168.31 226.547 167.67H226.624V169H228.132V162.531C228.132 159.412 225.754 159.054 224.502 159.054C223.019 159.054 221.331 159.565 220.564 161.355L221.996 161.866C222.328 161.151 223.114 160.384 224.553 160.384C225.94 160.384 226.624 161.119 226.624 162.378V162.429C226.624 163.158 225.882 163.094 224.092 163.324C222.271 163.56 220.283 163.963 220.283 166.213C220.283 168.131 221.766 169.23 223.632 169.23ZM223.862 167.875C222.661 167.875 221.791 167.338 221.791 166.29C221.791 165.139 222.84 164.781 224.016 164.628C224.655 164.551 226.368 164.372 226.624 164.065V165.446C226.624 166.673 225.652 167.875 223.862 167.875ZM234.849 172.886C237.201 172.886 239.093 171.812 239.093 169.281V159.182H237.636V160.741H237.482C237.15 160.23 236.536 159.054 234.619 159.054C232.138 159.054 230.425 161.023 230.425 164.04C230.425 167.108 232.215 168.847 234.593 168.847C236.511 168.847 237.124 167.722 237.457 167.185H237.584V169.179C237.584 170.815 236.434 171.557 234.849 171.557C233.065 171.557 232.439 170.617 232.036 170.074L230.834 170.918C231.448 171.947 232.656 172.886 234.849 172.886ZM234.797 167.491C232.905 167.491 231.934 166.06 231.934 164.014C231.934 162.02 232.88 160.409 234.797 160.409C236.638 160.409 237.61 161.892 237.61 164.014C237.61 166.188 236.613 167.491 234.797 167.491ZM245.971 169.205C247.965 169.205 249.422 168.207 249.883 166.724L248.425 166.315C248.042 167.338 247.153 167.849 245.971 167.849C244.2 167.849 242.979 166.705 242.909 164.602H250.036V163.963C250.036 160.307 247.863 159.054 245.817 159.054C243.158 159.054 241.394 161.151 241.394 164.168C241.394 167.185 243.133 169.205 245.971 169.205ZM242.909 163.298C243.011 161.771 244.092 160.409 245.817 160.409C247.454 160.409 248.502 161.636 248.502 163.298H242.909Z" fill="white"/>
<path d="M101.271 83.9091H99.6856L96.4129 86.0824V87.6932L99.6089 85.571H99.6856V97H101.271V83.9091ZM105.036 97H113.294V95.5938H107.209V95.4915L110.149 92.3466C112.399 89.9368 113.064 88.8118 113.064 87.3608C113.064 85.3409 111.428 83.7301 109.127 83.7301C106.832 83.7301 105.087 85.2898 105.087 87.5909H106.595C106.595 86.1016 107.561 85.1108 109.076 85.1108C110.495 85.1108 111.581 85.9801 111.581 87.3608C111.581 88.5689 110.872 89.4638 109.357 91.1193L105.036 95.8494V97ZM121.022 100.682H122.531V95.4915H122.659C122.991 96.0284 123.63 97.2045 125.522 97.2045C127.977 97.2045 129.69 95.2358 129.69 92.1165C129.69 89.0227 127.977 87.054 125.497 87.054C123.579 87.054 122.991 88.2301 122.659 88.7415H122.48V87.1818H121.022V100.682ZM122.505 92.0909C122.505 89.892 123.477 88.4091 125.318 88.4091C127.235 88.4091 128.181 90.0199 128.181 92.0909C128.181 94.1875 127.21 95.8494 125.318 95.8494C123.502 95.8494 122.505 94.3153 122.505 92.0909ZM133.5 91.0938C133.5 89.3807 134.593 88.4091 136.082 88.4091C137.501 88.4091 138.358 89.304 138.358 90.8636V97H139.866V90.7614C139.866 88.2365 138.524 87.054 136.517 87.054C134.97 87.054 134.088 87.6996 133.627 88.7159H133.5V83.9091H131.991V97H133.5V91.0938ZM146.614 97.2045C149.274 97.2045 151.063 95.1847 151.063 92.142C151.063 89.0739 149.274 87.054 146.614 87.054C143.955 87.054 142.166 89.0739 142.166 92.142C142.166 95.1847 143.955 97.2045 146.614 97.2045ZM146.614 95.8494C144.595 95.8494 143.674 94.1108 143.674 92.142C143.674 90.1733 144.595 88.4091 146.614 88.4091C148.634 88.4091 149.555 90.1733 149.555 92.142C149.555 94.1108 148.634 95.8494 146.614 95.8494ZM157.636 87.1818H155.539V84.8295H154.031V87.1818H152.548V88.4602H154.031V94.5966C154.031 96.3097 155.411 97.1278 156.69 97.1278C157.252 97.1278 157.61 97.0256 157.815 96.9489L157.508 95.5938C157.38 95.6193 157.176 95.6705 156.843 95.6705C156.179 95.6705 155.539 95.4659 155.539 94.1875V88.4602H157.636V87.1818ZM163.788 97.2045C166.447 97.2045 168.237 95.1847 168.237 92.142C168.237 89.0739 166.447 87.054 163.788 87.054C161.129 87.054 159.339 89.0739 159.339 92.142C159.339 95.1847 161.129 97.2045 163.788 97.2045ZM163.788 95.8494C161.768 95.8494 160.848 94.1108 160.848 92.142C160.848 90.1733 161.768 88.4091 163.788 88.4091C165.808 88.4091 166.729 90.1733 166.729 92.142C166.729 94.1108 165.808 95.8494 163.788 95.8494ZM177.494 89.3807C177.021 87.9872 175.96 87.054 174.017 87.054C171.946 87.054 170.412 88.2301 170.412 89.892C170.412 91.2472 171.217 92.1548 173.02 92.5767L174.656 92.9602C175.647 93.1903 176.114 93.6634 176.114 94.3409C176.114 95.1847 175.219 95.875 173.813 95.875C172.579 95.875 171.805 95.3445 171.537 94.2898L170.105 94.6477C170.457 96.3161 171.831 97.2045 173.838 97.2045C176.12 97.2045 177.673 95.9581 177.673 94.2642C177.673 92.8963 176.817 92.0334 175.065 91.6051L173.608 91.2472C172.445 90.9595 171.921 90.5696 171.921 89.8153C171.921 88.9716 172.815 88.358 174.017 88.358C175.334 88.358 175.877 89.0866 176.139 89.7642L177.494 89.3807ZM185.007 97H186.515V87.1818H185.007V97ZM185.774 85.5455C186.362 85.5455 186.848 85.0852 186.848 84.5227C186.848 83.9602 186.362 83.5 185.774 83.5C185.186 83.5 184.7 83.9602 184.7 84.5227C184.7 85.0852 185.186 85.5455 185.774 85.5455ZM190.787 91.0938C190.787 89.3807 191.848 88.4091 193.292 88.4091C194.692 88.4091 195.542 89.3232 195.542 90.8636V97H197.051V90.7614C197.051 88.2557 195.715 87.054 193.727 87.054C192.244 87.054 191.324 87.7188 190.863 88.7159H190.736V87.1818H189.278V97H190.787V91.0938ZM204.87 97H206.378V90.7869C206.378 89.4574 207.427 88.4858 208.859 88.4858C209.261 88.4858 209.677 88.5625 209.779 88.5881V87.054C209.606 87.0412 209.21 87.0284 208.986 87.0284C207.81 87.0284 206.788 87.6932 206.43 88.6648H206.327V87.1818H204.87V97ZM215.385 97.2045C217.379 97.2045 218.837 96.2074 219.297 94.7244L217.839 94.3153C217.456 95.3381 216.567 95.8494 215.385 95.8494C213.614 95.8494 212.393 94.7053 212.323 92.6023H219.45V91.9631C219.45 88.3068 217.277 87.054 215.231 87.054C212.572 87.054 210.808 89.1506 210.808 92.1676C210.808 95.1847 212.547 97.2045 215.385 97.2045ZM212.323 91.2983C212.425 89.7706 213.506 88.4091 215.231 88.4091C216.868 88.4091 217.916 89.6364 217.916 91.2983H212.323ZM226.015 87.1818H223.918V84.8295H222.41V87.1818H220.927V88.4602H222.41V94.5966C222.41 96.3097 223.79 97.1278 225.069 97.1278C225.631 97.1278 225.989 97.0256 226.194 96.9489L225.887 95.5938C225.759 95.6193 225.555 95.6705 225.222 95.6705C224.557 95.6705 223.918 95.4659 223.918 94.1875V88.4602H226.015V87.1818ZM232.167 97.2045C234.826 97.2045 236.616 95.1847 236.616 92.142C236.616 89.0739 234.826 87.054 232.167 87.054C229.508 87.054 227.718 89.0739 227.718 92.142C227.718 95.1847 229.508 97.2045 232.167 97.2045ZM232.167 95.8494C230.147 95.8494 229.227 94.1108 229.227 92.142C229.227 90.1733 230.147 88.4091 232.167 88.4091C234.187 88.4091 235.108 90.1733 235.108 92.142C235.108 94.1108 234.187 95.8494 232.167 95.8494ZM245.106 92.9858C245.106 94.8267 243.7 95.6705 242.575 95.6705C241.322 95.6705 240.427 94.75 240.427 93.3182V87.1818H238.919V93.4205C238.919 95.9261 240.248 97.1278 242.089 97.1278C243.572 97.1278 244.544 96.3352 245.004 95.3381H245.106V97H246.615V87.1818H245.106V92.9858ZM253.366 97.2045C255.54 97.2045 256.972 95.875 257.227 94.1364H255.719C255.437 95.2102 254.543 95.8494 253.366 95.8494C251.577 95.8494 250.426 94.3665 250.426 92.0909C250.426 89.8665 251.602 88.4091 253.366 88.4091C254.696 88.4091 255.489 89.2273 255.719 90.1222H257.227C256.972 88.2812 255.412 87.054 253.341 87.054C250.682 87.054 248.918 89.1506 248.918 92.142C248.918 95.0824 250.605 97.2045 253.366 97.2045ZM260.941 91.0938C260.941 89.3807 262.034 88.4091 263.523 88.4091C264.942 88.4091 265.799 89.304 265.799 90.8636V97H267.307V90.7614C267.307 88.2365 265.965 87.054 263.958 87.054C262.411 87.054 261.529 87.6996 261.069 88.7159H260.941V83.9091H259.432V97H260.941V91.0938Z" fill="white"/>
</svg>
