<svg width="32" height="50" viewBox="0 0 32 50" fill="none" xmlns="http://www.w3.org/2000/svg">
<g clip-path="url(#clip0_6_107)">
<path d="M4.37112 50V47.102H14.5871V40.93C6.39112 40.113 0.0381221 33.272 0.00012207 24.938V24.934H2.88112C2.89512 29.331 5.07412 33.216 8.40712 35.581L8.44812 35.608C10.5201 37.153 13.1311 38.082 15.9591 38.082C16.1961 38.082 16.4321 38.075 16.6671 38.063L16.6341 38.064C23.6271 37.725 29.1771 32.004 29.2401 24.973V24.967H32.1381C32.1381 25 32.1381 25.039 32.1381 25.078C32.1381 29.228 30.5311 33.003 27.9051 35.815L27.9131 35.806C25.3061 38.656 21.6961 40.55 17.6451 40.926L17.5821 40.931V47.021H27.8311V49.968L4.37112 50Z" fill="#CCBA8D"/>
<path d="M26.3261 11.706V16.11H19.0401V19.024H26.3091V23.412H19.0561V26.359H26.1941C25.4751 31.369 21.2121 35.177 16.0601 35.177C10.9081 35.177 6.64508 31.369 5.93208 26.414L5.92608 26.359H13.0971V23.461H5.86108V19.057H13.0971V16.126H5.86108V11.755H13.0971V8.792H5.95908C6.72408 3.832 10.9631 0.0780029 16.0781 0.0780029C21.1871 0.0780029 25.4221 3.823 26.1871 8.718L26.1941 8.776H19.0391V11.707L26.3261 11.706Z" fill="#BDAE82"/>
</g>
<defs>
<clipPath id="clip0_6_107">
<rect width="32" height="50" fill="white" transform="translate(0.00012207)"/>
</clipPath>
</defs>
</svg>
